<?xml version="1.0" encoding="utf-8"?>
<!-- Generator: Adobe Illustrator 27.2.0, SVG Export Plug-In . SVG Version: 6.00 Build 0)  -->
<svg version="1.1" id="圖層_1" xmlns="http://www.w3.org/2000/svg" xmlns:xlink="http://www.w3.org/1999/xlink" x="0px" y="0px"
	 viewBox="0 0 128 128" style="enable-background:new 0 0 128 128;" xml:space="preserve">
<style type="text/css">
	.st0{fill:#06543C;}
</style>
<g>
	<path class="st0" d="M115.4,56.6c0.2-0.1,0.2-0.2,0.3-0.3c0.1-0.1,0.1-0.2,0.1-0.3c0-0.1,0-0.2,0-0.3v-0.1c0-0.1,0-0.2,0-0.3
		c0-0.1,0-0.1,0-0.2c0,0,0,0,0-0.1c0-0.1,0-0.2,0-0.4c-0.1-0.4-0.2-0.8-0.5-1.1c-0.2-0.2-0.3-0.4-0.5-0.5c0.1,0,0.2,0.2,0.2,0
		c0-0.2-0.3-0.2-0.4-0.3c-0.1-0.1-0.2-0.3-0.2-0.3l-0.4-0.1h-0.3c-0.1,0-0.2-0.1-0.3-0.1l-0.2-0.1h-0.2c-0.1,0-0.2,0-0.2,0h-0.1
		c0-0.1,0-0.2-0.1-0.2l0,0c0.1-0.2,0-0.5-0.2-0.7c-0.3-0.4-0.7-0.5-1.1-0.6c0.1-0.1,0.2-0.2,0.4-0.2l0.5-0.2l0.5-0.2
		c0.2-0.1,0.4-0.2,0.7-0.4s0.5-0.4,0.6-0.5c0.1-0.2,0.2-0.2,0.2-0.2s0.1-0.1,0.1-0.2v-0.1l0.1-0.2c0.1-0.1,0.1-0.2,0-0.4
		c0-0.1,0-0.2,0-0.3s0-0.2,0-0.3c0.1-0.2-0.1-0.6-0.4-1.1c-0.4-0.5-0.2-1.4-0.8-1.4c-0.1,0-0.1,0-0.1,0l0,0l0,0
		c-0.2,0-0.2-0.1-0.3,0c-0.1,0.1-0.2,0.2-0.2,0.3s-0.4,0.1-0.5,0.4c-0.2,0.2-0.8,0.3-1,0.5c-0.7,0.5-2.1,0.8-2.6,1.1l-0.3,0.2
		c-0.2,0.1-0.2,0.2-0.4,0.2c-0.3,0.2-0.5,0.2-1.1,0.4c-0.1,0-0.2,0-0.2,0c-1.1,0.2-1.8,0.8-1.9,1c-0.1,0.1,0,0.2,0,0.4l0,0
		c-0.2,0.4,1.2,2.3,1.7,2.3c0.4,0,1-0.4,1.1-0.4c0,0,0.2-0.1,0.4-0.1l0,0l0,0c-0.3,0.4-0.5,0.8-0.5,1.4c0,0.2,0,0.2,0,0.4
		c0,0,0,0,0,0.1c0,0.2,0,0.2,0,0.4c0,0.1,0,0.1,0,0.2l0,0l0,0c0,0-0.1,0.1-0.3,0.2c-0.2,0.2-0.8,0.5-0.9,0.7c-0.1,0-0.1,0-0.1,0
		c-0.2-0.2-0.4-0.2-0.5-0.2c-0.2,0.1-0.5,0.2-0.8,0.1s-0.4,0.5-0.4,0.6s-0.2,0.3-0.2,0.5c0,0.2-0.1,0.6-0.1,1c0,0.3,0,0.7,0.1,0.9
		c0,0,0,0,0,0.1c0,0.2,0,0.3,0.1,0.4l0.2,0.4c0,0.1,0,0.2,0,0.2c0.1,0.3,0.2,0.5,0.4,0.8s1.9,0.2,2.4,0.3c0.2,0,0.2,0.1,0.3,0.1
		c0.3,0.1,0.2,0,0.2,0s-0.3-0.5-0.5-0.6l-0.1-0.2c-0.1-0.1-0.2-0.2-0.2-0.2c-0.2-0.2-0.5-0.6-0.8-0.8l0,0c0-0.1,0-0.2,0-0.4
		c0.1-0.3,0.2-0.6,0.4-0.8c0.1-0.1,0.2-0.2,0.2-0.2c0.1-0.1,0.2-0.2,0.3-0.2c0.2-0.1,0.3-0.2,0.5-0.3c0.6-0.4,1.5-0.6,2.6-0.8
		c0.1,0,0.2-0.1,0.2-0.1c0.1,0,0.2-0.1,0.3-0.2l0,0c-0.5,0.5-0.8,1.1-0.8,1.2c-0.1,0.1-0.4,0.5-0.4,0.5l-0.4,0.6
		c-0.2,0.4-0.4,0.8-0.5,1.1c0,0,0,0,0,0.1v0.1c0,0.2-0.1,0.3,0,0.5v0.1c0,0.1,0,0.2,0,0.3c0,0.3,0.3,0.5,0.8,0.7
		c0.2,0.1,0.8,0.1,1.5-0.1c0.6-0.1,1.1-0.2,1.6-0.4l0,0c0.1,0,0.2-0.1,0.2-0.1c0.4-0.1,0.8-0.2,1.1-0.3h0.1l0,0
		c0.4,0.1,0.3,0.1,0.3,0.1s0.8-0.4,0.8-0.5c0-0.1,0.1-0.4,0.1-0.4c0-0.1,0-0.2,0-0.2l0.1-0.1c0-0.2,0-0.2-0.1-0.3V58
		c0-0.1,0-0.2-0.1-0.3c0,0,0,0,0-0.1v-0.1c0-0.3-0.1-0.5-0.3-0.7l0.1-0.1C115.2,56.7,115.4,56.6,115.4,56.6z"/>
	<path class="st0" d="M95.8,57.4c-0.3-0.2-0.7-0.3-1-0.1c-0.2,0.2-0.5,0.4-0.7,0.6c-0.3,0.4-0.8,0.9-1,1.4c-0.1,0.3,0,0.7,0.1,1.1
		c0.1,0.4,0.2,0.8,0.4,1.1c0.1,0.2,0.1,0.4,0.2,0.5c0.8,0.7,1.5,1.5,2.6,1.3c0.1-0.5,0.2-0.8,0.3-1.3c0.2-0.6,0.8-1.3,0.8-1.9
		c0-0.2,0-0.4-0.1-0.5C97.1,58.6,96.4,57.9,95.8,57.4z"/>
	<path class="st0" d="M117.6,59.9c0.4,0.2,0.8,0.1,1.1-0.2c0.4-0.5,0.8-0.9,0.8-1.6v-0.2c-0.1-0.8-0.4-1.5-0.7-2
		c-0.1-0.2-0.2-0.2-0.4-0.2c-1.3,0.2-2,1.4-2.2,2.3v0.2C116.2,58.9,116.9,59.5,117.6,59.9z"/>
	<path class="st0" d="M127,56.5c0-0.1-0.2-0.1-0.2-0.2c0-0.2,0.2-0.5,0.2-0.6v-0.1c-0.3-1.2-1.8-1.8-3-1.4c-0.3,0.1-0.5,0.2-0.8,0.4
		c0.1,0.4,0.2,0.9-0.1,1.1c-0.3-0.6-0.8-1.2-1.1-1.7l0.1-0.1c0.3-0.2,0.7-0.5,1.2-0.9c0.5-0.4,0.8-0.5,1-0.5c0,0,0.1,0,0.2-0.1
		c0.1-0.1,0.2-0.2,0.3-0.2c0.3-0.2,0.5-0.5,0.4-0.7c0-0.2-0.1-0.3-0.2-0.5c0-0.2-0.2-0.4-0.3-0.5c-0.2-0.2-0.4-0.3-0.5-0.3
		s-0.2-0.2-0.4-0.4l0,0l0.5-0.5c0.2-0.2,0.3-0.4,0.4-0.5c0.1-0.1,0.2-0.2,0.2-0.2s0.1-0.1,0.1-0.3c0-0.2-0.1-0.4-0.2-0.6
		c-0.1-0.2-0.3-0.6-0.7-1l0,0c-0.1-0.2-0.2-0.2-0.2-0.3c-0.2-0.2-0.2-0.2-0.3-0.3l-0.1-0.1l0.2-0.1c0.1,0,0.2-0.1,0.4-0.2l0.5-0.3
		c0.3-0.2,0.5-0.4,0.8-0.5c0.1,0,0.1-0.1,0.2-0.1c0.1,0,0.2-0.1,0.2-0.1l0,0c0.3-0.2,0.1-0.1,0.6-0.6s0,0-0.2-0.2c0,0,0,0,0-0.1
		c0-0.1,0-0.2,0-0.2c0.1-0.1,0.2-0.1,0.2-0.2c0-0.2,0-0.3,0-0.3l-0.1-0.5c0,0-0.1-0.1-0.2-0.2l-0.1-0.2c0-0.1,0-0.1-0.1-0.2
		c0,0-0.1-0.1-0.2-0.2v-0.1c0-0.1-0.1-0.2-0.2-0.2c0,0,0-0.1,0-0.2c-0.1-0.2-0.2-0.3-0.4-0.3c-0.1,0-0.2,0-0.4,0
		c-0.2-0.2-0.2-0.3-0.4-0.5c-0.2-0.2-0.4-0.5-0.5-0.7c-0.4-0.5-0.6-0.7-0.7-0.7c0,0-0.1,0.1-0.2,0.1c-0.1-0.1-0.1-0.1-0.1-0.1
		c-0.2,0-0.4,0.2-0.7,0.5c-0.3,0.2-0.5,0.4-0.6,0.5c-0.2,0.2-0.5,0.5-0.9,0.9c-0.4,0.4-0.8,0.8-1.4,1.4c-0.5,0.6-0.9,1.1-1.1,1.4
		c-0.3,0.5-0.5,0.8-0.7,0.9l0,0c-0.2,0.2-0.6,0.7-0.6,0.7l0,0l0,0c0,0.1-0.1,0.2-0.2,0.2c-0.1,0.1-0.1,0.3-0.2,0.8
		c0,0.5,0,0.8,0,1.1c0,0.2,0.1,0.2,0.2,0.2l0,0c0,0.1,0,0.2,0,0.2c0,0.2,0.1,0.2,0.2,0.2h0.1c0.1,0,0.1,0,0.2,0.1
		c0.1,0.1,0.4,0.2,0.9,0.2c0.4,0.1,0.7,0.1,0.8,0.1c0.1,0,0.2,0,0.2,0c-0.1,0.2-0.3,0.4-0.5,0.7c-0.4,0.5-0.7,0.8-0.9,0.9
		c-0.3,0.2-0.5,0.5-0.8,0.8c-0.2,0.3-0.4,0.5-0.4,0.7c0,0.2-0.1,0.3-0.2,0.4c-0.1,0.1-0.1,0.2,0,0.5l0.1,0.4c0,0.2,0,0.2,0,0.3
		c0,0.6,0,1,0.2,1.1c0.1,0.3,0.2,0.5,0.3,0.5c0.1,0,0.5-0.1,0.8-0.3c0.3-0.2,0.6-0.3,1-0.3h0.4c-0.1,0.1-0.2,0.2-0.2,0.3h0.1
		c0.2,0,0.4-0.1,0.6-0.1c0,0.4,0.1,0.7,0.2,1c0.4,1.6,1.4,2.9,2.8,3.1c0.3-0.2,0.7-0.4,1-0.6c0-0.3-0.1-0.7-0.2-1
		c-0.1-0.3-0.2-0.7-0.2-0.9c0.9,0.7,1.7,1.5,2.9,1.8C126.7,57.7,127,57.1,127,56.5L127,56.5z"/>
	<path class="st0" d="M121.8,66.7c0-0.7-0.3-1.2-0.6-1.8c-0.2-0.2-0.3-0.5-0.5-0.8c-0.8-1.3-1.4-2.1-2.1-2.6
		c-1.2-0.8-3.2-0.6-4.7-0.4c-0.5,0.1-1.1,0.2-1.7,0.3c-0.5,0.1-1.1,0.2-1.6,0.3c-2.5,0.4-4.9,0.7-7.1,1c-2.3,0.4-2.9,0-4.6,0.4
		c-0.1,0-0.2,0.1-0.2,0.2c-0.2,0.5-0.3,0.9-0.3,1.4v0.1v0.1c0,0.7,0.2,1.1,0.3,1.7c0.1,0.2,0.1,0.3,0.2,0.5c0.1,0.3,0.1,0.5,0.2,0.8
		c0,0.1,0.1,0.2,0.1,0.2l0.2,0.1c0.5,0.2,0.7,0.3,0.8,0.7c0,0.1,0.1,0.1,0.1,0.1c0.2,0.1,0.4,0.2,0.6,0.2c0.5,0.2,0.7,0.2,0.6,0.5
		c0,0.1,0,0.2,0.1,0.2s0.1,0.1,0.2,0.1l0,0c0.5-0.1,0.8,0.2,0.9,0.2c0,0,0.1,0.1,0.2,0.1c0.5,0-0.5,0.5,0,0.5
		c0.8-0.2,1.9-0.4,2.8-0.6c1-0.2,1.4-0.3,3-0.6c0.1,0,2.9-0.5,2.9-0.5c-0.1,0.1-2.1,0.8-3.4,1.4c-3.2,1.4-3.3,1.2-3.7,4.7
		c0,0.2,0,0.3,0,0.5v0.1c0,0.1,0,0.1,0,0.2c0,0.3,0.3,0.4,0.5,0.4c0.1,0,0.2,0,0.2,0.1v0.1c0.8,1.2,2.4,1.4,3.9,1.6
		c0.6,0.1,1.1,0.2,1.7,0.3c-0.1,0.1-0.2,0.1-0.3,0.2c-0.2,0.1-0.5,0.1-0.7,0.4c-0.4,0.1-0.8,0.3-1.4,0.5c-0.8,0.3-1.9,0.1-2.8,0.3
		c-0.5,0.2-1.1,0.2-1.7,0.3c-1.2,0.1-0.3,0.6-0.8,1.5v0.1v0.2c0,0.2,0.2,0.5,0.8,1.4c0.2,0.2,0.3,0.5,0.4,0.6
		c-0.2,0.2-0.3,0.4-0.4,0.5V84v0.2c0,0.2,0.2,0.4,0.2,0.5c0.1,0.1,0.2,0.2,0.2,0.3v0.2c0,0.1,0,0.2,0.1,0.2c0.1,0,0.1,0.1,0.2,0.1
		c0.4-0.1,0.6-0.2,0.8-0.2c0.1,0,0.2-0.1,0.2-0.1l0,0c0.2,0.2,0.5,0.5,1,0.4c0.1,0,0.2,0,0.3-0.1l0.1,0.1c0.4,0.4,1,1,1.7,0.9h0.2
		c0.7-0.1,0-0.5,1.1-1c0.5-0.2,1.1-0.5,1.2-0.5c0.6-0.2,1.1-0.2,1.7-0.3c1.1-0.2,2.2-0.4,3.3-0.8c0.1,0,0.1-0.1,0.2-0.1
		c0.1-0.2,0.3-0.5,0.5-0.7c0.3-0.3,1.5-0.8,1.6-1.1c0.2-0.7,0.4-1.4,0.7-2c0.2-0.5,0.4-1,0.5-1.4c0.1-0.2,0.2-0.3,0.3-0.4
		c0.1-0.1,0.2-0.2,0.2-0.5c0-0.2,0-0.3-0.1-0.5c0.1-0.2,0.1-0.4,0.1-0.5c0-0.7-0.2-1-0.6-1.4c-0.2-0.2-0.2-0.3-0.4-0.5
		c-0.2-0.2-0.5-0.3-0.8-0.3c-0.2,0-0.4-0.1-0.4-0.1c-0.4-0.4-1.9-0.4-2.4-0.5c-0.2-0.1-0.4-0.1-0.5-0.2c0.2-0.1,0.3-0.1,0.5-0.1
		l0.3-0.1c0.1,0,0.2-0.1,0.2-0.1c0.7-1,1.7-1.6,2.9-2.3c1.1-0.7,2.3-1.3,3-2.4c0.4-0.5,0.6-1.1,0.6-1.6v-0.1
		C121.8,66.8,121.8,66.7,121.8,66.7L121.8,66.7z M105.3,72.5c-0.2,0-0.2-0.1-0.2-0.1c0-0.2,0.5-0.7,0.8-0.8c0.2,0,0.2,0,0.3,0.1v0.1
		C106.2,72.2,105.3,72.2,105.3,72.5z M100.4,64.4c2.9-0.8,7.1-0.9,10.4-1.7c0.5-0.2,1-0.4,1.4-0.5c0.2,0,0.3,0,0.5,0.1l0,0
		c0,0.2-0.2,0.1-0.3,0.2c0,0.1,0.1,0.1,0.2,0.1h0.2c0.1,0,0.1,0,0.2,0c0,0.1,0.1,0.2,0.1,0.2c0,0.1-0.1,0.2-0.1,0.2h0.1
		c0.1,0,0.2-0.1,0.3-0.1c0,0,0.1,0,0.2,0c-0.3,0.5-0.8,0.2-1.1,0.7c-0.1,0-0.2-0.1-0.2-0.1c-0.3,0-0.5,0.3-0.9,0.4h-0.2
		c-0.4,0-0.8-0.2-1.1-0.1h-0.1c-0.2,0.1-0.4,0.2-0.5,0.2c-0.1,0-0.2-0.1-0.4-0.1h-0.1c-0.3,0-0.6,0.3-0.9,0.3
		c-0.2,0-0.5-0.1-0.8-0.1c-0.4,0-0.8,0.3-1.1,0.3c-0.2,0-0.3,0-0.4-0.2c-0.5,0.2-1,0.3-1.5,0.3c-1.1,0.1-2.3,0-3.5,0.1h-0.4
		L100.4,64.4z M104,65.9l-0.8,0.1c0.3-0.2,0.6-0.3,1-0.3l0.5-0.1c0.5-0.1,1-0.2,1.4-0.5c0.2,0.1,0.2,0.2,0.3,0.5
		C105.5,65.7,104.8,65.8,104,65.9z M105.5,66.2c-0.1,0.2-0.2,0.2-0.4,0.2c-0.2,0-0.4,0-0.5,0h-0.1c0.2-0.2,0.5-0.3,0.7-0.3
		C105.4,66.2,105.5,66.2,105.5,66.2z M100.3,65.3c1.1,0.1,2,0.3,2.8,0.7c-0.3,0-0.7,0.1-1,0.2c-0.7,0.1-1.3,0-1.8-0.2V65.3z
		 M103.5,67.7c0,0.2-0.4,0.3-0.7,0.3h-0.2c-0.2,0-0.5-0.2-0.8-0.2c-0.5-0.1-0.9,0.2-1.1-0.2c0.2-0.2,0.3-0.3,0.5-0.5
		C101.7,67.7,102.9,67.7,103.5,67.7L103.5,67.7z M103.2,66.7c-0.2,0-0.2,0.1-0.4,0.2c-0.2-0.2-0.5-0.2-0.8-0.2
		c-0.2,0-0.4,0.1-0.5,0.1c-0.4,0-0.8,0-0.9-0.2c0.1-0.1,0.2-0.1,0.2-0.2c0-0.1,0-0.1-0.1-0.1c0.2,0,0.3-0.1,0.5-0.1
		c1.1-0.1,2.1,0.1,3,0.2c-0.1,0.2-0.2,0.2-0.3,0.2C103.7,66.8,103.5,66.7,103.2,66.7z M108.5,67.9c-0.3,0-0.7,0-1-0.1h-0.1
		c-0.2,0-0.2,0.2-0.4,0.2c-0.1-0.1-0.2-0.1-0.3-0.2c-0.3,0.1-0.6,0.2-0.8,0.2c-0.7,0-1.3-0.2-2-0.2l0,0c0-0.1,0.2-0.2,0.2-0.2
		l1.9-0.1c1.3-0.1,2.5-0.2,3.5-0.5c0.3,0.2,0.9-0.1,1.1,0.3c0.5-0.4,1.1-0.6,1.7-0.8c0,0.1-0.1,0.2-0.1,0.2c0,0.2,0.1,0.4,0.2,0.5
		C111.3,67.3,109.8,67.8,108.5,67.9z M112.3,65.7c-0.8,0.2-1.7,0.5-2.7,0.5c-0.8,0.1-1.7,0.1-2.4,0c1.4-0.6,2.8-0.7,4.2-1.1
		c-0.1,0-0.2,0-0.2,0c-0.2,0-0.5,0.2-0.8,0.2h-0.1c-0.7,0-1.6,0.2-2-0.2c1.6-0.2,2.9-0.7,4.4-1v0.1c0,0.1-0.2,0.2-0.2,0.4l0.5-0.1
		c-0.3,0.2-0.6,0.3-0.8,0.5c0.2,0,0.4,0.2,0.5,0.1c0.1,0,0.2-0.1,0.2-0.1c0.1,0,0.1,0,0.1,0.1l-0.1,0.2l0,0c0.3-0.1,0.7-0.2,0.9-0.3
		C113.5,65.5,112.8,65.6,112.3,65.7z"/>
	<path class="st0" d="M106,46.6c0.4,0.1,1.2-0.1,2.7-0.5l4.7-1.8c-1.7,0.4-3.4,1-4.7,1.2l0.1-0.1c0.2-0.2,0.7-0.2,0.8-0.4
		c0.1-0.1,0.1-0.1,0.2-0.2c1.8-0.5,3.8-1.2,5.9-1.5c0.2,0,0.1,0.1,0.1,0.2c-0.5,0.2-1.1,0.3-1.7,0.7l0.4-0.2
		c1.6-0.4,2.4-0.6,2.6-0.8s0.3-0.4,0.4-0.5c0.1-0.2,0.1-0.3,0.1-0.5l-0.4-1.1l-0.5-1.7c-0.2-0.1-0.3-0.2-0.5-0.2
		c-0.2-0.1-1,0-2.2,0.1c-0.5,0.1-0.8,0.1-1.2,0.2v-0.1c0-0.2,0-0.3,0-0.4c-0.1-0.9-0.7-1.3-1.1-1.7c-0.4-0.4-0.5-0.9-0.8-1.1
		c-0.5-0.5-1.4-0.5-2-0.5h-0.1c-0.3,0.1-0.7,0.6-1.1,0.7c-0.1,0-0.2,0-0.2,0c-0.8,0.9-1.3,2.3-1.1,4.2v0.3c0.2,0.2,0.5,0.5,0.7,0.8
		c-0.9,0.3-1.7,0.4-2.4,0.5c-1.1,0.2-1.6,0.5-1.7,0.5c-0.2,0.1-0.2,0.7-0.3,0.8C102.3,44,105.7,46.6,106,46.6z M116.5,42.3
		L116.5,42.3c-0.5,0.5-1.6,0.5-2.2,0.8C114.8,42.8,115.8,42.7,116.5,42.3z"/>
	<path class="st0" d="M99.8,59.9c0.2,0,0.4,0,0.6-0.2c0.2-0.4,0.2-0.7,0.2-1.1c0-0.2-0.1-0.4-0.1-0.6c0.5,0.5,0.8,1.2,1.3,1.8
		c0.4,0,0.8,0.1,1,0.3c0.7-0.5,1.2-0.9,1.2-1.7c-0.6-0.7-1.1-2.4-2.3-2.3h-0.2c-0.5,0.2-0.6,0.5-1,0.8c-0.2-0.4-0.5-1.1-0.8-1.7
		c0.1-0.1,0.2-0.2,0.3-0.2c0.1,0,0.2-0.1,0.2-0.1c0.4-0.2,0.8-0.2,1.3-0.2c0.2-0.2,0.5-0.1,0.6-0.2c0.2-0.2,0.2-0.2,0.2-0.3
		c0-0.1,0.1-0.2,0.3-0.2c0.2-0.1,0.4-0.2,0.6-0.5s0-1.1,0-1.4c0-0.2-0.1-0.3-0.2-0.5c-0.1-0.3-0.3-0.6-0.8-0.8l-0.7-0.4l-0.7-0.4
		c-0.5-0.3-0.2-0.2-0.1-0.4c0.2-0.5,0.6-1.2,0.9-2.2c0.2-0.7-0.2-1.3-0.8-1.7l-0.2-0.2c-0.1-0.1-0.3-0.2-0.5-0.1L99.8,46l-0.7,0.5
		c-0.8,0.5-1.2,0.7-1.3,0.6c0,0,0-0.1,0.1-0.2c0.1-0.2,0.2-0.3,0.3-0.5c0.2-0.5,0.8-0.8,1.7-1.4c0.2-0.1,0.4-0.3,0.5-0.5
		c0.2-0.4,0.5-0.7,0.8-1.1c0.2-0.3-0.3,0.1-0.5,0.2c0.2-0.2,0.2-0.3,0.4-0.5c0.2-0.2,0.1-0.2-0.1-0.1c0-0.1,0.1-0.1,0.1-0.2
		c0.1-0.1,0.2-0.2,0.3-0.2c0.4-0.2,0.5-0.5,0.2-1c0-0.2-0.1-0.3-0.2-0.5c-0.9-1.4-1.6-1.7-2-1.1c-0.2,0.2-0.3,0.2-0.3,0.2
		c-0.4-0.1,0.2-0.9-1.3,0.8c-2.5,2.7-3.7,4.7-3.5,5.8c0.2,0.6,0.3,1.1,0.5,1.7c0.1,0.3,0.2,0.5,0.4,0.8c0.4,0.8,0.8,1.2,1.1,1.2
		c0,0,0.3-0.2,0.7-0.5l0.3-0.2c-0.1,0.2-0.2,0.3-0.2,0.5c-0.4,0.6-0.7,1-0.9,1.2l-0.5,0.5c0,0.1-0.1,0.2-0.2,0.3
		c-0.2,0.2-0.3,0.3-0.5,0.5c-0.1,0.3-0.1,0.5,0,0.8c0,0,0.1,0.1,0.1,0.2s0,0.1,0,0.2c0,0,0.1,0.1,0.1,0.2l0.1,0.2l0.1,0.2V55
		l0.2,0.3c0.2,0.5,0.4,0.8,0.5,0.8l0.2-0.1l0.2-0.1l0.2-0.1c0.2-0.1,0.6-0.1,1-0.1c0,0.2,0,0.5,0,0.7C97.6,58.3,98.4,60.1,99.8,59.9
		z M97.7,43.2c-0.2,0.2-0.2,0.5-0.5,0.5v-0.4L97.7,43.2z M97.1,44.1c0.5-0.7,1-1.2,1.4-1.8c0-0.2-0.1-0.1-0.1-0.2c0,0,0-0.1,0-0.2
		c0.1-0.1,0.2-0.2,0.2-0.2c0.2-0.1,0.2,0,0.5-0.1c-1.2,1.7-2.7,3.3-3.8,5.1C95.5,45.9,96.1,44.6,97.1,44.1z M97.7,44.6
		c0,0.5-0.7,0.8-0.9,1.2C96.8,45.4,97.4,45,97.7,44.6L97.7,44.6z M95.5,48.2L95.5,48.2c0-0.4,0.3-0.5,0.3-0.7c0-0.1,0-0.2-0.1-0.2
		c0.9-1,1.7-2.2,2.8-3.2c0.1,0,0.1,0,0.1,0.1c-0.2,0.4-0.6,0.7-0.7,1.2C97.2,46.2,96.4,47.5,95.5,48.2z"/>
	<path class="st0" d="M81.6,51.3c0.3-0.2,0.5-0.4,0.8-0.4l0,0c1.2,0.5,2,0.4,2.6-0.1c0,0,0,0,0.1,0c0.8,0.4,1.4,0.8,1.7,1.2
		c0.6,0.2,1.5,0,2.9-0.5c0.2-0.3,0.4-0.8,0.5-1.4c0.1-0.7,0.1-1.4,0.1-1.8v-0.7l0,0c0.1-0.2,0.1-0.4,0.1-0.6c0-0.2,0-0.3,0-0.4
		c0-0.1,0-0.2-0.2-0.8c-0.1-0.2-0.2-0.5-0.2-0.8c-0.2-0.4-0.5-0.8-1-1.1c-0.1-0.1-0.1-0.1-0.2-0.2c-0.2-0.2-0.5-0.4-0.8-0.7
		l-1.2-0.2l0,0c-1.7-1-3.6-1.1-5.9-0.4c-1.1,1.1-1.7,2.4-1.7,3.9c0.2,0.2,0.3,0.5,0.4,0.6c0.1,0.2,0,0.5-0.2,0.6
		C79.7,48.7,80.5,49.9,81.6,51.3z"/>
	<path class="st0" d="M92.7,73.2c0,0,0-0.1-0.2-0.1l0,0c-0.2,0-0.3-0.1-0.4-0.2c0-0.1,0-0.3,0.1-0.6c-0.3,0.5-0.3,0.5-0.4,0.5
		c0,0-0.1,0,0.1-0.3l-0.1,0.2l-0.1,0.2c-0.3,0.5-0.5,0.5-0.5,0.5h-0.1c-0.1-0.1-0.1-0.2,0-0.3l0.1-0.2l0.1-0.2
		c0.2-0.5,0.2-0.6,0.2-0.6l0,0c0,0-0.2,0.1-0.3,0.5c-0.2,0.5-0.3,0.5-0.4,0.5h-0.1c-0.1-0.1-0.1-0.2,0.2-0.8
		c0.1-0.2,0.1-0.4,0.2-0.7c0.1-0.2,0.1-0.4,0.2-0.5c0-0.1,0-0.2,0.2-0.5l0.2-0.5c0.2-0.6,0.2-0.8,0.2-0.9c-0.2-0.2-0.1-0.4,0-0.5
		c0-0.1,0.1-0.2,0.1-0.3c0-0.2,0-0.2,0-0.4V68c0-0.2,0.1-0.4,0.2-0.8l0.1-0.5l0.2-0.5c0.2-1.1,0.2-1.4,0-1.4l0,0V65
		c0,0.1,0,0.2,0,0.2c-0.1,0.1-0.1,0.1-0.2,0.1c0,0-0.1,0-0.1,0.1l0,0c-0.1,0.1-0.2,0.2-0.2,0.2l0,0c-0.1,0.1-0.2,0.2-0.2,0.2
		s-0.1-0.1-0.1-0.1l0,0c0-0.2,0-0.2,0-0.2s0,0-0.2,0c-0.2,0.2-0.4,0.3-0.6,0.6c-0.1,0.2-0.2,0.3-0.4,0.5l-0.3,0.5
		c-0.3,0.4-0.5,0.7-0.8,1c-0.5,0.8-1.1,1.6-1.6,2.2l-0.2,0.2c0,0,0,0-0.1,0c0,0,0,0,0-0.1c0.3-2.8,1.1-5.5,1.1-5.6c0-0.2,0-0.5,0-1
		c0-0.5,0-0.8,0-1c0-0.1,0-0.2,0-0.2c0-0.4,0-0.7,0.2-1.1l0,0c0.2-0.2,0.4-0.4,0.4-0.7c0.1-0.3,0.2-0.6,0.4-0.8
		c-0.2-0.2-0.2-0.5-0.1-0.9c0.2-0.3,0.2-0.6,0.1-0.7c-0.9-0.8-2.1-1.4-3.8-1.7c-0.2,0-0.3-0.2-0.5-0.4c-0.2-0.2-0.3-0.3-0.5-0.3
		l-0.5,0.2c0,0,0,0-0.1,0c-0.6-0.6-1.3-0.8-2.1-0.7c-0.1,0.2-0.5,0.5-1.4,0.8c-0.3,0.2-0.5,0.5-0.6,1.1c-0.1,0.5-0.2,0.8-0.5,1
		c0.2,0.4,0.2,0.7-0.2,0.9c0.2,0.2,0.2,0.5,0.2,0.9c-0.1,0.4,0,0.7,0.2,0.8l0,0c-0.2,0.8-0.2,1.9,0.1,3.4c0.1,0.4,0.2,0.8,0.2,1.4
		c0.2,1.5,0.5,3.3,0.5,4.1c0,0.2,0.1,0.3,0.2,0.5c0.2,0.5,0.5,1,0.5,2.1l0,0c-0.1,0.2-0.1,0.7-0.1,1.4c0,1.4-0.1,2.3-0.4,2.6
		c-0.2,0.3-0.4,0.8-0.3,1.4l0.2,0.7c0,0.2,0.1,0.3,0.2,0.4l1.4,1.1c0.9,0.6,1.9,1.3,3,1.9c1.1,0.7,1.8,1,2,1l0,0
		c0.4,0,0.9-0.7,1.4-2c0.5-1.4,0.9-2.2,1.3-2.3c0.2-0.1,0.2-0.1,0.3,0c0.1,0,0.1,0,0.2,0c0,0,0.1-0.1,0-0.3l0,0
		c0.1-0.5,0.5-1.4,1.4-3C92.7,73.7,92.8,73.3,92.7,73.2z M81.3,69.8L81.3,69.8C81.3,69.8,81.3,69.8,81.3,69.8c-0.2-1-0.4-2-0.6-2.9
		c-0.2-1.2-0.5-2.5-0.7-3.7v-0.1h0.1v0.2c0.1,0.3,0.2,0.5,0.4,0.7c0,0,0,0.1,0.1,0.1c0-0.4,0-0.8,0-1.1c0-1.3,0-2.6,0.1-3.7
		c0,0,0,0,0.1,0c0,0,0.1,0,0.1,0.1v0.2c0,0.3,0.1,0.5,0.2,0.7c0.1,0.2,0.2,0.5,0.2,0.8V61c0,0.3-0.1,0.5-0.2,0.8
		c-0.1,0.2-0.2,0.4-0.2,0.5c-0.1,0.3-0.1,0.5,0,0.8c0,0.2,0,0.5,0.1,0.7c0,0.2,0.1,0.5,0.1,0.8c0,0.1,0,0.2,0,0.3V65
		c0.1,0.3,0,0.5-0.1,0.8c-0.1,0.2-0.1,0.4-0.1,0.5c0,0.3,0.1,0.5,0.2,0.8c0.1,0.2,0.1,0.4,0.2,0.6c0.1,0.2,0.2,0.5,0.2,0.8
		C81.5,68.6,81.6,69.2,81.3,69.8C81.4,69.8,81.4,69.8,81.3,69.8z M81.7,71.8C81.7,71.8,81.6,71.8,81.7,71.8
		C81.6,71.8,81.6,71.8,81.7,71.8h-0.2c0,0,0,0-0.1,0c-0.1-0.2-0.2-0.4-0.2-0.6c0-0.3,0-0.5,0-0.7l0,0c0,0,0,0,0.1,0
		c0.2,0.3,0.2,0.8,0.2,1.1L81.7,71.8C81.7,71.7,81.7,71.8,81.7,71.8z"/>
	<path class="st0" d="M31.4,52.7c0-0.1,0.1-0.2,0.1-0.2s0.1-0.2,0.1-0.2c-0.2-0.1-0.3-0.2-0.5-0.2l0,0l0,0c0,0,0,0-0.1,0
		c0,0,0,0,0-0.1c0.4-0.4,0.5-1,0.8-1.6c0.2-0.6,0.4-1.3,0.8-1.6c0-0.2,0-0.3,0-0.5c0.1-0.5,0.2-1,0.5-1.4c-0.1-0.2-0.1-0.5-0.2-0.8
		c-0.2-0.8-0.3-1.7-0.2-2.6v-0.2c-0.2,0.2-0.4,0.2-0.5,0.2l0,0c-0.2,0-0.2-0.1-0.3-0.2c-0.1-0.1-0.2-0.2-0.4-0.3
		C28.5,41.5,24,42.4,21,43c-0.1,0-0.2,0-0.3,0.1c-0.1,0-0.2,0.1-0.4,0.1l-0.2,0.1c-0.4,0.1-0.8,0.2-1.3,0.4
		c-0.5,0.2-0.8,0.3-1.3,0.4l0,0c-0.2,0.1-0.5,0.2-0.7,0.2c-0.7,0.2-1.4,0.3-1.9,0.5c-0.9,0.3-1.9,0.6-2.6,1c-1.1,0.5-2.1,1-3.2,1.5
		C8.6,47.4,8,47.7,7.4,48c-0.9,0.5-1.8,0.8-2.7,1.1c-0.4,0.3-0.8,0.6-1.3,0.9c-1.2,0.8-2.5,1.6-2,2.7c0.1,0.2,0.3,0.4,0.5,0.6l0,0
		c0,0,0,0,0,0.1c-0.2,0.5,0,0.8,0.2,1.2c0.1,0.2,0.2,0.4,0.2,0.6c0.3,0.1,0.6,0.5,0.8,0.8c0.2,0.4,0.5,0.7,0.9,0.8c0,0,0,0,0,0.1
		c0,0.2,0.1,0.3,0.2,0.5c0.1,0.2,0.2,0.2,0.2,0.4c0.4,0,0.7,0.3,1.1,0.6c0.5,0.4,0.8,0.7,1.1,0.5c0,0,0,0,0.1-0.1l0.1-0.1l0,0l0,0
		v0.1c0,0.1,0,0.1,0,0.2c0,0.1,0,0.1,0,0.2c0.1,0,0.1-0.1,0.2-0.1c0.5-0.4,1.1-0.8,1.6-1.1c0.9-0.7,1.9-1.4,2.9-1.8
		c0.5-0.2,1-0.4,1.4-0.4c0,0,0.6,0.1,0.8,0.3c0,0.1,0,0.1,0.1,0.2c0,0,0,0,0.1,0.1l0,0l0,0c0.1,0.2,0.2,0.5,0.2,0.5l0,0
		c-0.1,0.1-0.1,0.4-0.2,0.8c0,0.5-0.2,0.8-0.3,0.9l0.2,0.2c0,0,0,0,0,0.1c-0.2,0.4-0.3,1.1-0.4,2c0,0.8-0.1,1.4-0.2,1.8
		c0.2,0.4,0.2,0.9,0.1,1.5c-0.1,0.7-0.1,1.2,0.2,1.5l0,0c-0.2,0.7-0.4,3.5-0.3,4.9c0,1.4-0.1,2.4-0.3,3.1c0,0.2,0,0.5,0.2,0.9
		c0.2,0.5,0,0.8-0.1,0.8c0.1,0.2,0.2,0.8,0.3,1.8c0.2,1.1,0.4,1.9,0.5,2.4s0.5,1.1,1.1,1.6l0,0c0.7,1.1,1.7,1.7,2.9,1.7
		c0.3-0.5,0.8-0.7,1.7-0.7l0.4-0.5c0-0.6,0.1-1,0.2-1.1l0,0c0.2,0,0.3-0.1,0.5-0.3c0.3-0.2,0.5-0.3,0.7-0.4c0.2-0.2,0.3-0.5,0.5-0.8
		c0.2-0.3,0.2-0.5,0.3-0.8c0.1-0.1,0.1-0.2,0.1-0.2c0.1-0.2,0-0.6-0.1-1.3c-0.1-0.5-0.1-1,0.1-1.3c-0.3-0.2-0.5-0.5-0.7-1.1
		c-0.2-0.5-0.3-0.8-0.4-1l0,0c0.2-0.6,0.2-1.4,0.3-2.7c0-1.1,0.2-3.7,0.2-4.1c-0.2-0.3-0.3-0.8-0.2-1.3c0.1-0.6,0.1-0.9-0.1-1.1
		c0,0,0,0,0-0.1c0.1-0.5,0.2-1.2,0.2-2.1c0-0.2,0-0.4,0.1-0.6c0.3-0.9,0.3-1.9,0.3-2.6v-0.4c0-0.2,0-1.2,0.2-2.7l0,0
		c0.1-0.1,0.2-0.3,0.4-0.5c0.2-0.3,0.3-0.5,0.4-0.5c0-0.1-0.1-0.2-0.1-0.2s-0.1-0.1-0.1-0.3l0,0l0,0c0.1,0,0.2,0,0.2-0.1
		c0.1-0.1,0.2-0.2,0.2-0.2c0.1-0.1,0.4-0.2,0.7-0.3c0.2,0,0.3,0,0.5-0.1c0.4-0.1,0.8-0.2,1.1-0.4l0,0c0.1,0,0.2,0,0.3,0.1
		c0.2,0,0.3,0.1,0.5,0.1c0.1,0,0.2,0,0.3-0.2c0,0,0,0,0.1,0c0.3,0.2,0.8,0.2,1.2,0.2c0.2,0,0.4-0.1,0.5-0.1c0.2,0,0.5-0.1,0.7-0.1
		c0.2,0,0.4,0,0.6,0l0,0l0,0l-0.1-0.1c-0.1,0-0.1-0.1-0.1-0.1s0-0.1,0.1-0.1l0,0c0.1-0.1,0.2-0.1,0.2-0.1l0,0c0.2,0,0.3,0.2,0.5,0.2
		c0.1,0.1,0.2,0.2,0.2,0.2c0.1,0,0.1,0,0.2,0c0.2,0,0.4-0.1,0.5-0.2C30.9,52.8,31.2,52.7,31.4,52.7z M18.9,49.4c0.2,0,0.3,0,0.5,0
		c0.1,0,0.2,0,0.3,0c0,0,0,0,0.1,0c0,0,0,0,0,0.1c-0.1,0.1-0.2,0.1-0.4,0.2c-0.3,0.1-0.5,0.1-0.8,0.2l0,0l0,0c0,0,0,0,0-0.1
		C18.6,49.5,18.7,49.5,18.9,49.4z M13.7,54.3c-0.5,0.2-0.9,0.4-1.4,0.6c-0.5,0.2-0.8,0.5-1.3,0.6c-0.3,0.2-0.8,0.3-1,0.4l0,0l0,0
		c0,0,0,0,0-0.1c0.2-0.5,0.5-0.7,1.1-1c0.2-0.1,0.5-0.2,0.7-0.2c0.2-0.1,0.4-0.2,0.5-0.2c0.3-0.2,0.5-0.2,0.8-0.3
		c0.5-0.2,1-0.4,1.4-0.5c0,0,0,0,0.1,0c0,0,0,0,0,0.1c-0.1,0.1-0.2,0.2-0.3,0.5l0,0c-0.1,0-0.1,0-0.2,0
		C13.9,54.2,13.8,54.2,13.7,54.3z M10.3,53L10.3,53c0.2-0.2,0.4-0.3,0.6-0.4c0.4-0.3,0.8-0.5,1.2-0.8c0.3-0.2,0.5-0.2,0.8-0.2
		c0,0,0,0,0.1,0v0.1c-0.2,0.1-0.4,0.2-0.6,0.3c-0.5,0.2-0.9,0.5-1.3,0.7l0,0C10.8,52.9,10.6,53,10.3,53C10.4,53,10.4,53,10.3,53
		L10.3,53z M13.8,61.9c0-0.5,0.2-0.9,0.2-1.4c0.1-0.3,0.1-0.5,0.2-0.8c0,0,0-0.1,0.1,0h0.1c0,0.2,0,0.7,0,1l0,0
		c-0.1,0.9-0.1,1.4-0.2,2.3c0,0,0,0,0,0.1l0,0l0,0C13.8,62.7,13.8,62.3,13.8,61.9z M14.1,78.4L14.1,78.4L14.1,78.4
		c-0.5-1.1-0.6-3-0.6-4.5c0-0.1,0-0.2,0-0.3c0-0.2,0-0.2,0-0.4c0-0.3,0-0.7,0.3-0.8c0,0,0,0,0.1,0l0,0C14,74.7,14.1,76.8,14.1,78.4
		C14.2,78.4,14.1,78.4,14.1,78.4z M14.4,74.7L14.4,74.7L14.4,74.7C14.4,74.7,14.4,74.7,14.4,74.7c-0.4-2.1-0.6-4.6-0.7-7
		c0-1.5,0-2.8,0.1-3.8l0,0h0.1c0.1,0,0.1-0.1,0.2-0.1s0.2,0.1,0.2,0.1l0.1,0.1l0,0c0.1,0.2,0.1,0.5,0.1,0.8c0,0.2,0,0.4,0,0.5
		s0,0.3,0,0.4c0,0,0,0,0,0.1c0,0,0,0-0.1,0c-0.1-0.2-0.2-0.4-0.2-0.7c0-0.2-0.1-0.4-0.1-0.6c0,0.2,0,0.2,0,0.4c0,0.2,0,0.5,0,0.7
		c0,0.3,0,0.5,0,0.8c0,0.6,0.1,1.1,0.2,1.4l0,0c-0.1,0.2-0.1,0.5-0.1,0.8c0,0.4,0.1,0.7,0.2,1.1c0.1,0.4,0.2,0.8,0.2,1.2
		c0,0.8,0.1,1.2,0.1,2c0,0.2,0,0.4,0.1,0.5c0,0.2,0,0.3,0,0.4C14.6,74.3,14.6,74.6,14.4,74.7z M14.8,68.5L14.8,68.5L14.8,68.5
		c-0.3-0.2-0.4-0.4-0.4-0.7c-0.1-0.3,0-0.6,0-0.9c0-0.2,0-0.4,0-0.5v-0.1h0.1c0.1,0.2,0.1,0.5,0.2,0.7
		C14.7,67.6,14.8,67.9,14.8,68.5C14.9,68.5,14.9,68.5,14.8,68.5z M15.4,52.1c-1.8,0.8-3.5,1.6-4.9,2.3l0,0l0,0c0,0,0,0,0-0.1
		c0.6-0.9,1.9-1.7,3.7-2.3c0.1,0,0.2-0.1,0.2-0.1c0.1-0.1,0.2-0.1,0.3-0.2c0.2-0.1,0.4-0.1,0.5,0C15.3,51.8,15.4,51.9,15.4,52.1
		L15.4,52.1z M15.7,50.7c-0.2,0.1-0.2,0.2-0.4,0.2c-0.4,0.2-0.8,0.4-1.1,0.5c-0.2,0.1-0.5,0.2-0.7,0.2c-0.1,0-0.2,0-0.2,0
		c0,0,0,0,0-0.1c0.1-0.3,0.3-0.5,0.6-0.5c0.2-0.1,0.2-0.1,0.4-0.1s0.2-0.1,0.4-0.1c0.1,0,0.2-0.1,0.3-0.2c0.1-0.1,0.2-0.1,0.3-0.2
		C15.5,50.4,15.6,50.4,15.7,50.7C15.8,50.7,15.8,50.7,15.7,50.7C15.8,50.7,15.8,50.7,15.7,50.7z M15.6,49.8c-0.1,0-0.2,0-0.2,0.1
		c-0.1,0-0.2,0.1-0.4,0.1c-0.7,0.2-1.4,0.6-2.1,1.1c-0.6,0.3-1.2,0.7-1.8,0.9c-0.5,0.2-0.8,0.3-1.2,0.3l0,0l0,0c0,0,0,0,0-0.1
		c0.2-0.7,0.7-1,1.2-1.2c0.2-0.1,0.5-0.2,0.8-0.3c0.2-0.1,0.5-0.2,0.8-0.2c0.4-0.2,0.7-0.3,1.1-0.5c0.4-0.2,0.8-0.4,1.1-0.5
		c0.5-0.2,0.8-0.2,1.1-0.2l0,0l0,0C15.9,49.7,15.8,49.8,15.6,49.8z M16.3,50.5C16.2,50.5,16.2,50.5,16.3,50.5
		C16.2,50.5,16.2,50.5,16.3,50.5L16.3,50.5l-0.1-0.2c0,0,0,0,0-0.1c0.2-0.1,0.4-0.2,0.5-0.2c0.3-0.1,0.5-0.1,0.7-0.1c0,0,0,0,0.1,0
		c0,0,0,0,0,0.1C17.1,50.3,16.8,50.4,16.3,50.5L16.3,50.5z M18.7,51.1c-0.2,0.1-0.2,0.1-0.4,0.1c-0.2,0.1-0.3,0.2-0.5,0.2
		c-0.2,0.1-0.3,0.2-0.5,0.2c-0.1,0-0.2,0-0.2,0c-0.2,0-0.4-0.1-0.5-0.3c0,0,0,0,0-0.1c0.2-0.2,0.5-0.5,0.8-0.5
		c0.6-0.2,1.4-0.2,1.9-0.2h0.2l0,0c0,0,0,0,0-0.1v-0.2l0,0l0,0c0.2,0,0.4-0.1,0.6-0.1l0,0c0.3-0.1,0.7-0.2,1.1-0.3
		c0.5-0.2,1.1-0.3,1.7-0.5c0.5-0.1,1.1-0.2,1.7,0l0,0c0,0,0,0,0,0.1c-0.1,0.2-0.2,0.2-0.4,0.3c-0.2,0.1-0.2,0.2-0.3,0.2l0,0l0,0
		C23.8,50,23.7,50,23.4,50c-0.2,0-0.4,0.1-0.5,0.2c-0.2,0.1-0.3,0.1-0.5,0.2c-0.1,0-0.2,0.1-0.4,0c-0.1,0-0.1,0.1-0.1,0.2
		c-0.1,0.1-0.2,0.2-0.2,0.2l0,0c-0.4,0.1-0.8,0.2-1.3,0.2C19.9,51,19.3,51,18.7,51.1z M23.8,51.9c-0.2,0.2-0.3,0.2-0.5,0.2
		c-0.1,0-0.2,0-0.2,0c-0.1,0-0.2,0-0.4,0l0,0l0,0c0,0,0,0,0-0.1c0.1-0.1,0.2-0.1,0.3-0.1C23.4,51.9,23.5,51.8,23.8,51.9
		C23.8,51.8,23.8,51.8,23.8,51.9C23.9,51.8,23.8,51.9,23.8,51.9z M28,51.6c-0.4,0.2-0.8,0.2-1.3,0.3c-0.4,0-0.8,0.1-1.1,0.1
		c-0.2,0-0.4,0-0.5,0c-0.2,0-0.5,0-0.8,0l0,0c0,0,0,0-0.1,0c0,0,0,0,0-0.1c0.2-0.1,0.3-0.2,0.5-0.2c0.3-0.1,0.7,0,0.9,0
		c0.1,0,0.2,0,0.2,0c0.4-0.1,0.7-0.2,1.1-0.2C27.2,51.4,27.5,51.4,28,51.6C28,51.5,28,51.5,28,51.6L28,51.6z M28.8,51.9L28.8,51.9
		C28.8,51.9,28.7,51.9,28.8,51.9c-0.2,0-0.5-0.1-0.5-0.3c0,0,0,0,0-0.1c0,0,0,0,0.1,0c0.2,0.1,0.2,0.1,0.4,0.1s0.2,0.1,0.2,0.1
		s0,0,0,0.1C28.9,51.9,28.9,51.9,28.8,51.9z M28.8,51.3c-0.1,0-0.2,0-0.3,0c-0.2,0-0.3,0-0.5,0c-0.7,0.1-1,0.1-1.7,0.2
		c-0.3,0-0.7,0-1-0.1c-0.3-0.1-0.6-0.1-0.8-0.1c-0.2,0-0.5,0.2-0.7,0.3c0,0,0,0-0.1,0c-0.3-0.1-0.7-0.2-1.1-0.1
		c-0.2,0-0.5,0.1-0.7,0.2c-0.2,0.1-0.4,0.1-0.5,0.2c-0.2,0-0.3,0.1-0.4,0.1c0.2,0.2,0.4,0.2,0.5,0.2c0.2,0,0.4,0,0.5,0.2
		c0,0,0,0,0,0.1l0,0c-0.1,0-0.2,0.1-0.3,0.1c-0.2,0.1-0.3,0.1-0.4,0.1c-0.1,0-0.2,0-0.3,0c-0.1,0-0.2,0-0.3-0.1l0,0
		c0-0.1,0-0.1-0.1-0.2c-0.1-0.1-0.1-0.2-0.1-0.3c0-0.1,0-0.2,0-0.2v-0.1l0,0c0.8-0.3,1.8-0.5,3-0.8c2-0.3,3.9-0.3,5.6-0.1l0,0l0,0
		C29.4,51.2,29.1,51.3,28.8,51.3z M25.9,49.6L25.9,49.6c0.3-0.2,0.6-0.2,0.9-0.3c0.4-0.1,0.8,0,1.2,0.1c0,0,0,0,0,0.1v0.1
		c-0.2,0.1-0.4,0.1-0.6,0.1l0,0c-0.4,0-0.8,0.1-1.2,0.1C26.1,49.7,26,49.7,25.9,49.6C25.9,49.7,25.9,49.7,25.9,49.6z M28,50L28,50
		c0-0.2,0-0.2,0.1-0.2c0,0,0-0.1,0.1-0.1l0,0h0.1l0,0c0.2,0,0.2,0.2,0.2,0.2V50l0,0l0,0C28.3,50,28.3,50,28,50
		C28.1,50,28.1,50,28,50C28.1,50,28.1,50,28,50C28.1,50,28,50,28,50z M29.5,44.1c-1.2-0.1-2.6-0.1-3.9,0.1c-0.5,0.1-1.1,0.2-1.5,0.3
		l0,0l0,0c-0.2-0.1-0.2-0.2-0.3-0.2c-0.2-0.2-0.2-0.2-0.5-0.2h-0.2c0,0,0,0-0.1,0c0,0,0,0,0-0.1c0.2-0.3,0.5-0.4,0.8-0.4
		c0.3-0.1,0.7,0,1,0.1c0.3,0.1,0.7,0.1,1,0.1c0.1,0,0.1,0,0.2-0.1c0.1,0,0.2,0,0.2-0.1l0,0c0.1,0,0.2,0,0.2,0.1
		c0.2,0,0.2,0.1,0.3,0.1c0.2-0.2,0.6-0.4,1-0.4C28.4,43.3,29.3,43.6,29.5,44.1C29.5,44.1,29.5,44.1,29.5,44.1
		C29.5,44.1,29.5,44.1,29.5,44.1z"/>
	<path class="st0" d="M49.2,74.1L49.2,74.1C49.2,74.1,49.2,74,49.2,74.1c0.1-0.3,0.2-0.8,0.3-1.7c0.2-0.7,0.3-1.4,0.6-1.9
		c-0.2-0.3-0.3-1.1-0.3-2.5l-0.8-1.5l-1-1.7c-0.4-0.5-0.8-1-1.1-1.2c-0.5-0.5-0.9-0.8-1.4-1c0,0,0,0,0-0.1c0,0,0-0.1-0.1-0.2
		c-0.1-0.1-0.2-0.2-0.2-0.2h-0.6l0,0c-0.5-0.3-1.4-0.4-2.9-0.3l0,0c0,0,0,0,0-0.1c0,0,0-0.1,0.1-0.2c0.1-0.1,0.1-0.3,0.2-0.5
		c0.1-0.2,0.2-0.4,0.2-0.5c0.1-0.2,0.1-0.2,0.2-0.4c0-0.2,0.2-0.4,0.3-0.8c0.1-0.2,0.4-1.1,1.5-4.6l0.1-0.2c0.2-0.5,0.4-1,0.5-1.5
		l0,0c0.8-0.5,1.2-1.4,1.4-2.8c-0.5-3.1-1.3-4.7-2.6-4.9l0,0c0,0,0,0,0-0.1c0.1-0.2,0-0.4-0.2-0.6c-0.2-0.2-0.4-0.3-0.5-0.5
		c-0.5,0.2-1.1,0.2-1.7,0.1c-0.8,0.2-1.4,0.6-1.9,1.2c-0.5,0.6-1.1,1.5-1.6,2.6l-0.5,1.1l-0.4,0.8c-0.1,0.1-0.1,0.2-0.2,0.2
		c0,0.1-0.1,0.1-0.1,0.1c-2.9,7.9-5.7,19.2-5.8,25.8l0,0c-0.2,0.2-0.2,0.3-0.2,0.6c0.5,1.8,1.7,3.2,3.5,4.1c0.7,0,1.1-0.2,1.3-0.5
		l0,0c0.1,0,0.2,0.1,0.2,0.2c0.1,0,0.1,0,0.2,0.1l0,0c0.5-0.8,0.8-1.8,0.7-3.2l0,0c0.1-0.2,0.2-0.2,0.2-0.5c0.1-0.2,0.2-0.4,0.2-0.5
		l-0.2-0.2c0,0,0,0,0-0.1c0.1-0.3,0.4-1.1,0.8-2.4c0.4-1.4,0.7-2.2,0.8-2.4c0,0,0,0,0.1,0c0.1,0,0.2,0.1,0.3,0.2l0,0
		c0,0.1,0.1,0.1,0.2,0.1c1.9-2.2,3.8-3.1,5.7-2.5c0,0,0,0,0,0.1c0.1,1.7-0.2,3.4-0.8,5.3c0.3,0.2,0.3,0.5,0.2,1.2
		c-0.2,0.5-0.2,0.9-0.1,1.1c0.3,0.3,0.3,0.6,0.1,0.9c0.9,2.3,2,3.8,3.3,4.6c1.4,0.6,3-0.2,5-2.5c0,0,0.2-0.2,0.4-0.7
		c0.2-0.4,0.4-0.6,0.6-0.7c-0.1-0.4,0-1,0.1-1.7c0.2-0.8,0.1-1.4-0.2-1.7C52.5,75,51.4,74.7,49.2,74.1z M32.9,70.7L32.9,70.7
		L32.9,70.7L32.9,70.7c0,0.2,0,0.2-0.1,0.2l0,0c0,0,0,0-0.1,0h-0.1c0,0,0,0,0-0.1c0-0.2,0-0.5,0-0.7c0.1-0.3,0.2-0.6,0.2-0.8
		c0,0,0,0,0.1,0c0,0,0,0,0,0.1C33.1,69.8,33.1,70.2,32.9,70.7z M33.6,68.2C33.6,68.3,33.5,68.3,33.6,68.2
		C33.5,68.3,33.5,68.3,33.6,68.2C33.5,68.2,33.5,68.2,33.6,68.2c-0.2-1.1,0.2-3.1,0.5-4.5c0-0.1,0.1-0.2,0.1-0.3
		c0-0.2,0.1-0.2,0.1-0.4c0.1-0.3,0.2-0.7,0.5-0.7l0,0c0,0,0,0,0,0.1C34.4,64.1,34.1,65.9,33.6,68.2z M35.8,58.6
		c-0.1,0.2-0.1,0.3-0.2,0.5c-0.1,0.2-0.1,0.4-0.1,0.6c0,0.2-0.1,0.4-0.1,0.5c-0.1,0.2-0.2,0.5-0.5,0.7l0,0l0,0l0,0
		c-0.1-0.2,0-0.6,0.1-1.1c0.2-0.7,0.5-1.6,0.8-2.1l0.1-0.2l0,0l0,0h-0.1l0,0c0,0,0,0,0-0.1c0.1-0.2,0.2-0.5,0.2-0.7l0,0
		c0.1-0.4,0.2-0.8,0.3-1.2c0.2-0.7,0.3-1.4,0.5-2c0.2-0.5,0.4-1.3,0.8-1.9c0,0,0,0,0.1,0l0,0c0,0.2,0,0.3,0,0.5s0,0.3,0,0.4
		c0,0,0,0,0,0.1c-0.2,0.2-0.2,0.3-0.3,0.7c-0.1,0.2-0.1,0.4-0.2,0.6c-0.1,0.2-0.1,0.4-0.2,0.5c-0.1,0.2-0.1,0.2-0.2,0.4
		c0,0.1,0,0.1,0,0.2c0,0.1,0,0.2,0,0.3c-0.2,0.5-0.3,0.9-0.5,1.4C36.2,57.3,35.9,58,35.8,58.6z M37.1,57.6c-0.1,0.5-0.2,1.1-0.2,1.7
		c-0.1,0.5-0.2,0.9-0.4,1.1l0,0l0,0l0,0c-0.2-0.2-0.2-0.5-0.1-0.9c0-0.2,0.1-0.4,0.2-0.5c0.1-0.2,0.1-0.3,0.2-0.5
		c0-0.2,0.1-0.3,0.1-0.4c0-0.2,0.1-0.3,0.1-0.5c0.1-0.3,0.2-0.5,0.4-0.7c0,0,0,0,0.1,0c0,0,0,0,0,0.1C37.1,57.3,37.1,57.4,37.1,57.6
		z M37.3,56.2L37.3,56.2c0,0.2,0,0.2-0.1,0.2l0,0h-0.1l0,0l0,0c0-0.2,0.1-0.5,0.2-0.8c0.1-0.4,0.2-0.8,0.3-1c0,0,0,0,0.1,0
		c0,0,0,0,0,0.1C37.6,55.1,37.4,55.6,37.3,56.2z"/>
	<path class="st0" d="M75.5,70.7L75.5,70.7c0.1,0.2,0.2,0.3,0.2,0.4c0.2,0.4,0.4,0.8,0.6,1.3c0.1,0.3,0.2,0.5,0.2,0.8
		c0.1-0.2,0.1-0.3,0.1-0.5c0-0.1-0.1-0.5-0.2-1.1l0,0l0,0c-0.1-0.2-0.2-0.4-0.3-0.5c-0.2-0.3-0.2-0.6-0.3-0.8c0,0,0,0,0-0.1
		c0,0,0,0,0.1,0c0.2,0.2,0.2,0.3,0.3,0.5c-0.2-0.7-0.4-1.4-0.5-1.7c-0.2-0.9-0.3-1.5-0.3-1.7c0.2-0.2,0.2-0.4,0.2-0.7l-0.2-0.2
		c0.4-1,0.2-1.8-0.4-2.5l0.5-0.2c0.1-0.6-0.1-1.1-0.5-1.7l-0.2-0.2c0.1-0.1,0.2-0.3,0.2-0.5c0.1-0.3,0.2-0.5,0.2-0.6l-0.9-1.7
		l-0.9-1.7v-0.9c-0.3,0-0.5-0.1-0.6-0.2l-0.2,0.2c-0.3-0.2-0.5-0.2-0.5-0.4c-0.3-0.2-0.5-0.3-0.6-0.4s-0.4-0.1-0.5,0
		c-2.2-1.4-4-2.3-5.6-2.9c-0.2,0.2-0.5,0.2-1.1,0.2c-0.2-0.2-0.5-0.2-1-0.1c-0.5,0.2-0.8,0.2-1,0.1c-0.1,0.1-0.8,0.5-2.3,1.4
		c-1.1,0.7-2,1.4-2.6,1.8c0.1,0.2,0.1,0.5-0.1,0.8c-0.2,0.4-0.2,0.6-0.2,0.6l-2,2.8c-0.4,0.5-0.6,1.1-0.6,1.7
		c-0.1,0.8-0.1,1.8-0.2,2.3c-0.2,1.1-0.2,1.8,0,2.1c-0.2,0.4-0.2,0.8,0,1.4c0.2,0.5,0.2,1.1,0,1.4c0.5,0.8,1,1.8,1.2,2.8
		c0.3,0.2,0.6,0.5,1.1,1.1c0.5,0.5,0.9,0.8,1.4,1.1c0.4,0.2,0.8,0.4,1.3,0.4c0,0.1,0,0.2,0.1,0.2c0,0.1,0.1,0.1,0.1,0.2
		c2.1,0.4,3.6,0.2,4.4-0.4c1.1-1,2-1.6,2.6-1.8l1.1-1.4c0.5-0.7,1-1.2,1.2-1.4c0.2,0.8,1.3,3.3,1.6,3.5c0.2,0.2,0.2,0.5,0.2,0.8
		c0.1,0.1,0.3,0.4,0.7,0.8c0.3,0.4,0.6,0.7,1,0.8c0.7,0,1.1,0.2,1.3,0.5c0.8-0.4,1.3-0.5,1.5-0.4c0-0.2,0.1-0.2,0.1-0.2
		c0.1-0.1,0.2-0.2,0.2-0.2c0.5,0,0.8-0.5,1.1-1.4l-0.2-0.2c0.1-0.3,0.2-0.6,0.2-0.8c-0.2-0.1-0.3-0.3-0.5-0.6
		c-0.1-0.2-0.1-0.3-0.2-0.5c-0.1-0.2-0.1-0.2-0.2-0.4c0-0.1-0.1-0.2-0.2-0.3c-0.1-0.1-0.1-0.2-0.2-0.3C75.3,71,75.3,70.8,75.5,70.7
		C75.4,70.7,75.5,70.7,75.5,70.7z M67.9,62.1C67.9,62.1,67.9,62.2,67.9,62.1c-0.1,0.1,0,0.3,0.1,0.5c-0.1,0.2-0.2,0.4-0.1,0.6
		c-0.1,0.3-0.2,0.6-0.3,0.9l0,0c-0.5,1.6-1.4,2.6-2.8,3l-1.1,0.5c-1.2,0.6-2.2-0.3-2.9-2.9c0-0.1,0.1-0.2,0.2-0.2s0.2-0.2,0.2-0.2
		L61,64.1c1.1-2.3,3.5-3.8,7-4.4c0,0.1,0,0.2,0.1,0.2c0,0,0,0-0.1,0c0,0.4,0.1,0.5,0.2,0.7c-0.2,0.2-0.2,0.5-0.1,0.8
		c0.1,0.2,0.1,0.2,0.1,0.4c-0.1,0-0.2,0-0.2,0C67.9,61.9,67.9,62,67.9,62.1z M75.4,70.1L75.4,70.1c-0.1,0-0.1,0-0.2,0c0,0,0,0,0-0.1
		c-0.2-0.3-0.3-0.8-0.4-1.3c-0.2-0.7-0.2-1.3-0.3-1.6c0,0,0-0.1,0.1-0.1c0,0,0.1,0,0.1,0.1c0.3,0.8,0.5,1.7,0.8,2.6v0.2
		C75.5,70.1,75.5,70.1,75.4,70.1L75.4,70.1z"/>
</g>
</svg>
