<?xml version="1.0" encoding="utf-8"?>
<!-- Generator: Adobe Illustrator 27.2.0, SVG Export Plug-In . SVG Version: 6.00 Build 0)  -->
<svg version="1.1" id="圖層_1" xmlns="http://www.w3.org/2000/svg" xmlns:xlink="http://www.w3.org/1999/xlink" x="0px" y="0px"
	 viewBox="0 0 461.5 221.2" style="enable-background:new 0 0 461.5 221.2;" xml:space="preserve">
<style type="text/css">
	.st0{fill:#5E6A7E;}
	.st1{fill:#075C3E;}
</style>
<g>
	<g>
		<g>
			<g>
				<g>
					<path class="st0" d="M148.9,207.1l1.5-0.9c1.1,2,2.3,2.9,3.7,2.9c0.6,0,1.2-0.1,1.7-0.4c0.5-0.3,0.9-0.7,1.2-1.1
						c0.3-0.5,0.4-1,0.4-1.5c0-0.6-0.2-1.2-0.6-1.8c-0.6-0.8-1.6-1.7-3-2.9c-1.5-1.1-2.4-1.9-2.8-2.4c-0.6-0.8-0.9-1.7-0.9-2.7
						c0-0.8,0.2-1.5,0.6-2.1c0.4-0.6,0.9-1.1,1.6-1.5c0.7-0.4,1.4-0.6,2.2-0.6c0.8,0,1.6,0.2,2.4,0.6c0.7,0.4,1.5,1.2,2.3,2.3
						l-1.5,1.1c-0.7-0.9-1.2-1.5-1.7-1.8c-0.5-0.3-1-0.4-1.5-0.4c-0.7,0-1.3,0.2-1.8,0.7c-0.5,0.4-0.7,1-0.7,1.6
						c0,0.4,0.1,0.8,0.2,1.1c0.2,0.4,0.5,0.8,0.9,1.2c0.2,0.2,1,0.8,2.3,1.8c1.5,1.1,2.6,2.2,3.2,3c0.6,0.9,0.9,1.8,0.9,2.7
						c0,1.3-0.5,2.4-1.5,3.4c-1,1-2.2,1.4-3.6,1.4c-1.1,0-2.1-0.3-2.9-0.9C150.4,209.4,149.6,208.4,148.9,207.1z"/>
					<path class="st0" d="M171.5,196.9c2,0,3.7,0.7,5,2.2c1.2,1.3,1.8,2.9,1.8,4.8c0,1.8-0.6,3.4-1.9,4.8c-1.3,1.4-2.9,2.1-4.9,2.1
						c-2,0-3.7-0.7-5-2.1c-1.3-1.4-1.9-3-1.9-4.8c0-1.8,0.6-3.4,1.8-4.7C167.8,197.6,169.4,196.9,171.5,196.9z M171.5,198.5
						c-1.4,0-2.6,0.5-3.6,1.6c-1,1-1.5,2.3-1.5,3.8c0,1,0.2,1.8,0.7,2.7c0.5,0.8,1.1,1.5,1.9,1.9c0.8,0.4,1.6,0.7,2.6,0.7
						c0.9,0,1.8-0.2,2.6-0.7c0.8-0.4,1.4-1.1,1.9-1.9c0.5-0.8,0.7-1.7,0.7-2.7c0-1.5-0.5-2.7-1.5-3.8
						C174.1,199.1,172.9,198.5,171.5,198.5z"/>
					<path class="st0" d="M196.7,200l-1.3,0.8c-1.2-1.5-2.7-2.3-4.8-2.3c-1.6,0-2.9,0.5-4,1.5c-1.1,1-1.6,2.3-1.6,3.8
						c0,1,0.2,1.9,0.7,2.7c0.5,0.8,1.2,1.5,2,2c0.9,0.5,1.8,0.7,2.9,0.7c1.9,0,3.5-0.8,4.7-2.3l1.3,0.9c-0.6,0.9-1.5,1.7-2.5,2.2
						c-1.1,0.5-2.3,0.8-3.6,0.8c-2.1,0-3.8-0.7-5.2-2c-1.4-1.3-2.1-2.9-2.1-4.8c0-1.3,0.3-2.5,1-3.6c0.6-1.1,1.5-1.9,2.6-2.6
						c1.1-0.6,2.4-0.9,3.8-0.9c0.9,0,1.7,0.1,2.5,0.4c0.8,0.3,1.5,0.6,2.1,1C195.9,198.7,196.3,199.3,196.7,200z"/>
					<path class="st0" d="M203.1,191.8c0.4,0,0.7,0.1,1,0.4c0.3,0.3,0.4,0.6,0.4,1c0,0.4-0.1,0.7-0.4,1c-0.3,0.3-0.6,0.4-1,0.4
						c-0.4,0-0.7-0.1-1-0.4c-0.3-0.3-0.4-0.6-0.4-1c0-0.4,0.1-0.7,0.4-1C202.4,191.9,202.7,191.8,203.1,191.8z M202.2,197.2h1.7
						v13.2h-1.7V197.2z"/>
					<path class="st0" d="M223,197.2v13.2h-1.7v-2.3c-0.7,0.9-1.5,1.5-2.4,1.9c-0.9,0.4-1.9,0.7-2.9,0.7c-1.9,0-3.5-0.7-4.8-2
						c-1.3-1.4-2-3-2-4.9c0-1.9,0.7-3.5,2-4.9c1.3-1.3,2.9-2,4.8-2c1.1,0,2.1,0.2,2.9,0.7c0.9,0.5,1.6,1.1,2.3,2.1v-2.4H223z
						 M216.3,198.5c-0.9,0-1.8,0.2-2.6,0.7c-0.8,0.5-1.4,1.1-1.9,2c-0.5,0.8-0.7,1.7-0.7,2.7c0,0.9,0.2,1.8,0.7,2.7
						c0.5,0.8,1.1,1.5,1.9,2c0.8,0.5,1.7,0.7,2.6,0.7c0.9,0,1.8-0.2,2.6-0.7c0.8-0.5,1.5-1.1,1.9-1.9c0.4-0.8,0.7-1.7,0.7-2.7
						c0-1.5-0.5-2.8-1.5-3.8C219,199,217.7,198.5,216.3,198.5z"/>
					<path class="st0" d="M229.1,192.1h1.7v18.2h-1.7V192.1z"/>
					<path class="st0" d="M244.5,207.1l1.5-0.9c1.1,2,2.3,2.9,3.7,2.9c0.6,0,1.2-0.1,1.7-0.4c0.5-0.3,0.9-0.7,1.2-1.1
						c0.3-0.5,0.4-1,0.4-1.5c0-0.6-0.2-1.2-0.6-1.8c-0.6-0.8-1.6-1.7-3-2.9c-1.5-1.1-2.4-1.9-2.8-2.4c-0.6-0.8-0.9-1.7-0.9-2.7
						c0-0.8,0.2-1.5,0.6-2.1c0.4-0.6,0.9-1.1,1.6-1.5c0.7-0.4,1.4-0.6,2.2-0.6c0.8,0,1.6,0.2,2.4,0.6c0.7,0.4,1.5,1.2,2.3,2.3
						l-1.5,1.1c-0.7-0.9-1.2-1.5-1.7-1.8c-0.5-0.3-1-0.4-1.5-0.4c-0.7,0-1.3,0.2-1.8,0.7c-0.5,0.4-0.7,1-0.7,1.6
						c0,0.4,0.1,0.8,0.2,1.1c0.2,0.4,0.5,0.8,0.9,1.2c0.2,0.2,1,0.8,2.3,1.8c1.5,1.1,2.6,2.2,3.2,3c0.6,0.9,0.9,1.8,0.9,2.7
						c0,1.3-0.5,2.4-1.5,3.4c-1,1-2.2,1.4-3.6,1.4c-1.1,0-2.1-0.3-2.9-0.9C246.1,209.4,245.3,208.4,244.5,207.1z"/>
					<path class="st0" d="M260.9,197.2h1.7v2.4c0.7-0.9,1.4-1.6,2.3-2.1c0.9-0.5,1.8-0.7,2.9-0.7c1.9,0,3.5,0.7,4.8,2
						c1.3,1.3,2,3,2,4.9c0,1.9-0.7,3.6-2,4.9c-1.3,1.4-2.9,2-4.8,2c-1,0-2-0.2-2.9-0.7c-0.9-0.4-1.7-1.1-2.4-1.9v7.1h-1.7V197.2z
						 M267.7,198.5c-1.5,0-2.7,0.5-3.7,1.5c-1,1-1.5,2.3-1.5,3.8c0,1,0.2,1.9,0.7,2.7c0.4,0.8,1.1,1.4,1.9,1.9
						c0.8,0.5,1.7,0.7,2.6,0.7c0.9,0,1.8-0.2,2.6-0.7c0.8-0.5,1.4-1.1,1.9-2c0.5-0.8,0.7-1.7,0.7-2.7c0-0.9-0.2-1.8-0.7-2.7
						c-0.5-0.8-1.1-1.5-1.9-2C269.5,198.7,268.7,198.5,267.7,198.5z"/>
					<path class="st0" d="M293.4,197.2v13.2h-1.7v-2.3c-0.7,0.9-1.5,1.5-2.4,1.9c-0.9,0.4-1.9,0.7-2.9,0.7c-1.9,0-3.5-0.7-4.8-2
						c-1.3-1.4-2-3-2-4.9c0-1.9,0.7-3.5,2-4.9c1.3-1.3,2.9-2,4.8-2c1.1,0,2.1,0.2,2.9,0.7c0.9,0.5,1.6,1.1,2.3,2.1v-2.4H293.4z
						 M286.7,198.5c-0.9,0-1.8,0.2-2.6,0.7c-0.8,0.5-1.4,1.1-1.9,2c-0.5,0.8-0.7,1.7-0.7,2.7c0,0.9,0.2,1.8,0.7,2.7
						c0.5,0.8,1.1,1.5,1.9,2c0.8,0.5,1.7,0.7,2.6,0.7c0.9,0,1.8-0.2,2.6-0.7c0.8-0.5,1.5-1.1,1.9-1.9c0.4-0.8,0.7-1.7,0.7-2.7
						c0-1.5-0.5-2.8-1.5-3.8C289.4,199,288.1,198.5,286.7,198.5z"/>
					<path class="st0" d="M312.5,200l-1.3,0.8c-1.2-1.5-2.7-2.3-4.8-2.3c-1.6,0-2.9,0.5-4,1.5c-1.1,1-1.6,2.3-1.6,3.8
						c0,1,0.2,1.9,0.7,2.7c0.5,0.8,1.2,1.5,2,2c0.9,0.5,1.8,0.7,2.9,0.7c1.9,0,3.5-0.8,4.7-2.3l1.3,0.9c-0.6,0.9-1.5,1.7-2.5,2.2
						c-1.1,0.5-2.3,0.8-3.6,0.8c-2.1,0-3.8-0.7-5.2-2c-1.4-1.3-2.1-2.9-2.1-4.8c0-1.3,0.3-2.5,1-3.6c0.6-1.1,1.5-1.9,2.6-2.6
						c1.1-0.6,2.4-0.9,3.8-0.9c0.9,0,1.7,0.1,2.5,0.4c0.8,0.3,1.5,0.6,2.1,1C311.6,198.7,312.1,199.3,312.5,200z"/>
					<path class="st0" d="M329.3,206l1.4,0.8c-0.5,0.9-1,1.7-1.6,2.2c-0.6,0.6-1.3,1-2.1,1.3c-0.8,0.3-1.6,0.4-2.6,0.4
						c-2.1,0-3.8-0.7-5-2.1c-1.2-1.4-1.8-3-1.8-4.8c0-1.7,0.5-3.2,1.5-4.5c1.3-1.7,3-2.5,5.2-2.5c2.2,0,4,0.9,5.4,2.6
						c1,1.2,1.4,2.7,1.5,4.5h-11.8c0,1.5,0.5,2.8,1.5,3.8c0.9,1,2.1,1.5,3.5,1.5c0.7,0,1.3-0.1,2-0.4c0.6-0.2,1.2-0.5,1.6-0.9
						C328.3,207.5,328.8,206.9,329.3,206z M329.3,202.5c-0.2-0.9-0.6-1.6-1-2.2c-0.4-0.5-1-1-1.7-1.3c-0.7-0.3-1.5-0.5-2.2-0.5
						c-1.3,0-2.4,0.4-3.3,1.2c-0.7,0.6-1.2,1.5-1.5,2.7H329.3z"/>
				</g>
			</g>
		</g>
	</g>
	<g>
		<path class="st1" d="M408.6,78.9c0.4-0.3,0.7-0.7,1-1.1c0.2-0.1,0.3-0.5,0.4-1c0-0.3,0-0.7-0.1-1.1c0-0.1,0-0.2,0-0.2
			c0-0.3,0-0.6,0-1c0-0.2,0-0.3-0.1-0.5c0-0.1,0-0.1,0-0.2c0.1-0.4,0-0.8-0.1-1.2c-0.2-1.2-0.7-2.6-1.5-3.6
			c-0.6-0.7-1.2-1.3-1.8-1.9c0.3,0.1,0.7,0.5,0.6-0.1c0-0.8-0.9-0.9-1.3-1.1c-0.3-0.2-0.8-0.9-0.8-0.9l-1.2-0.2L403,65
			c-0.3-0.1-0.6-0.2-1-0.3l-0.6-0.1l-0.5,0c-0.3,0-0.6-0.1-0.7-0.1c-0.1,0-0.2,0.1-0.3,0.1c0-0.2-0.1-0.5-0.1-0.7c0,0,0,0,0-0.1
			c0.2-0.7,0-1.5-0.7-2.3c-1-1.2-2.3-1.9-3.7-2c0.4-0.2,0.8-0.4,1.3-0.7l1.7-0.6l1.7-0.6c0.5-0.2,1.3-0.6,2.3-1.4
			c1-0.7,1.6-1.2,2-1.7c0.2-0.4,0.5-0.7,0.9-0.8c0.1,0,0.2-0.2,0.2-0.4l0-0.2l0.2-0.5c0.2-0.4,0.2-0.8,0-1.4c0.1-0.3,0.1-0.7,0-1.1
			c0.1-0.3,0-0.7-0.1-1.1c0.3-0.9-0.1-2.1-1.4-3.6c-1.3-1.5-0.8-4.7-2.9-5c-0.2,0-0.3,0-0.3,0c0,0,0,0,0,0c0,0,0,0,0,0
			c-0.7-0.1-0.8-0.3-1.1-0.1c-0.2,0.2-0.7,0.8-0.9,1c0.1,0.1-1.3,0.3-1.9,1.2c-0.6,0.9-2.8,1.2-3.3,1.5c-2.2,1.6-7.3,2.7-8.8,3.6
			l-1,0.7c-0.5,0.3-0.9,0.5-1.2,0.7c-1.1,0.6-1.7,0.8-3.7,1.3c-0.2,0-0.4,0-0.7,0.1c-3.6,0.9-6.3,2.8-6.6,3.3
			c-0.1,0.2-0.1,0.7,0.1,1.2c0,0-0.1,0.1-0.1,0.1c-0.7,1.3,4.2,7.8,5.9,7.9c1.4,0,3.3-1.2,4-1.2c0.1,0,0.7-0.2,1.4-0.4c0,0,0,0,0,0
			l0,0c-0.9,1.4-1.5,3-1.6,4.8c0,0.5,0,0.8,0,1.2c0,0,0,0.1,0,0.1c0,0.5,0,0.8,0,1.2c0,0.2,0,0.4,0.1,0.5c0,0,0,0.1,0,0.1
			c0,0,0,0.1,0,0.1c-0.1,0.1-0.3,0.2-1.1,0.9c-0.8,0.7-2.6,1.9-3.2,2.3c-0.1,0-0.3,0-0.4-0.1c-0.7-0.4-1.2-0.6-1.7-0.5
			c-0.5,0.1-1.9,0.6-2.6,0.4c-0.7-0.2-1.2,1.9-1.2,2.2c0,0.2-0.7,1-0.8,1.7c-0.1,0.5-0.3,2-0.2,3.4c0,1.1,0,2.3,0.3,3.1
			c0,0.1,0,0.1,0.1,0.1c0,0.5,0.1,1,0.2,1.2l0.6,1.2c0,0.2,0,0.4,0.1,0.6c0.2,1.1,0.8,1.8,1.3,2.6c0.5,0.8,6.6,0.6,8.4,1
			c0.5,0.1,0.8,0.1,1,0.2c1,0.4,0.8,0,0.8,0s-1-1.6-1.8-2c0,0-0.3-0.4-0.3-0.4c-0.2-0.2-0.5-0.4-0.8-0.7c-0.8-0.8-1.9-2.1-2.5-2.9
			c0,0,0,0,0,0c0.1-0.2,0.1-0.7,0.1-1.3c0.3-1,0.7-2,1.3-2.7c0.2-0.3,0.4-0.5,0.6-0.7c0.2-0.2,0.5-0.4,0.9-0.8
			c0.6-0.3,1.1-0.7,1.7-1c2.2-1.3,5.1-2.2,8.8-2.6c0.2,0,0.5-0.1,0.8-0.2c0.3-0.1,0.7-0.3,1.1-0.5c0,0,0,0,0,0
			c-1.6,1.4-2.8,3.9-2.9,4.3c-0.2,0.4-1.2,1.5-1.3,1.7l-1.3,2.1c-0.8,1.3-1.4,2.5-1.6,3.6c0,0-0.1,0.1-0.1,0.1c0,0.1,0,0.2,0,0.4
			c-0.1,0.6-0.2,1.2-0.1,1.7c0,0.1,0,0.1,0,0.2c0,0.4-0.1,0.7,0,1.1c0.1,1,1,1.8,3,2.4c0.9,0.4,2.6,0.3,5.2-0.2
			c2-0.4,3.8-0.8,5.6-1.3c0,0,0,0,0,0c0.3-0.1,0.5-0.1,0.6-0.2c1.3-0.4,2.6-0.7,3.7-1.1c0.1,0,0.2-0.1,0.3-0.1c0,0,0,0,0,0
			c1.3,0.2,1.1,0.4,1.1,0.4s2.7-1.3,2.6-1.5c-0.1-0.2,0.4-1.2,0.4-1.2c0-0.3-0.1-0.5-0.1-0.7c0.1-0.1,0.2-0.2,0.2-0.4
			c0-0.4-0.1-0.7-0.1-1.1c0.1-0.1,0.1-0.2,0.1-0.2c0-0.4-0.1-0.7-0.1-1c0-0.1,0-0.1,0-0.2c0.1-0.1,0.1-0.2,0.1-0.2
			c0-1.1-0.3-1.8-0.9-2.4l0.3-0.3C408.1,79.3,408.4,79,408.6,78.9z"/>
		<path class="st1" d="M340.5,81.6c-0.9-0.9-2.3-1.1-3.3-0.4c-0.9,0.6-1.7,1.3-2.3,2c-1,1.2-2.8,3.3-3.3,4.6
			c-0.3,1.1-0.1,2.3,0.3,3.7c0.3,1.3,0.8,2.6,1.2,4c0.2,0.6,0.2,1.3,0.4,1.9c2.8,2.4,5.3,5.2,8.9,4.5c0.3-1.7,0.4-2.9,1-4.5
			c0.6-2.1,3-4.5,2.8-6.5c0-0.5-0.1-1.2-0.3-1.8C345.1,86.1,342.4,83.4,340.5,81.6z"/>
		<path class="st1" d="M416.3,90.4c1.2,0.6,2.9,0.2,3.7-0.9c1.2-1.6,2.7-3.1,2.8-5.6l0-0.9c-0.2-2.6-1.4-5.2-2.4-7
			c-0.3-0.5-0.8-0.8-1.3-0.7c-4.4,0.7-7.1,4.8-7.6,8.1l0,0.8C411.4,87,413.7,89.2,416.3,90.4z"/>
		<path class="st1" d="M449,78.7c0-0.2-0.6-0.3-0.7-0.8c0-0.9,0.7-1.7,0.6-2.2l-0.1-0.3c-1-4.3-6.4-6.2-10.5-4.9
			c-1,0.3-1.9,0.8-2.6,1.4c0.3,1.3,0.7,3.1-0.2,4c-1-2-2.5-4.1-3.6-6.1c0.1-0.1,0.2-0.2,0.3-0.2c1-0.9,2.4-1.9,4.3-3.1
			c1.9-1.3,3-1.9,3.3-2c0.1,0,0.3-0.1,0.7-0.3c0.4-0.2,0.7-0.5,1.1-0.8c1-0.9,1.5-1.6,1.4-2.2c0-0.5-0.3-1.1-0.7-1.8
			c-0.1-0.6-0.4-1.2-1-1.9c-0.6-0.7-1.2-1.1-1.6-1.1c-0.3,0-0.7-0.4-1.3-1.2l0,0l1.7-1.8c0.5-0.6,0.9-1.2,1.4-1.6
			c0.4-0.3,0.6-0.5,0.8-0.5c0.2,0,0.3-0.3,0.3-1c0-0.5-0.2-1.2-0.7-2c-0.2-0.9-0.9-2-2.2-3.5c0,0,0,0,0,0c-0.4-0.4-0.5-0.5-0.9-1
			c-0.4-0.5-0.6-0.6-1.1-1.1c-0.1-0.1-0.2-0.2-0.3-0.4l0.6-0.3c0.3-0.1,0.7-0.4,1.2-0.8l1.5-1.1c1.1-0.9,1.9-1.4,2.5-1.7
			c0.2-0.1,0.4-0.2,0.6-0.2c0.2-0.1,0.4-0.2,0.6-0.3c0,0,0,0,0.1,0c1-0.4,0.3-0.2,2.1-2.1c1.8-1.9,0,0-0.5-0.9c0-0.1,0-0.1,0-0.2
			c0-0.2,0.1-0.4,0.1-0.6c0.2-0.2,0.5-0.3,0.5-0.6c0-0.5,0.1-1,0.1-1l-0.4-1.7c0,0-0.2-0.2-0.5-0.5l-0.2-0.7c0-0.2-0.1-0.3-0.2-0.4
			c-0.1-0.1-0.3-0.3-0.4-0.5c0-0.1,0-0.2,0-0.2c0-0.2-0.2-0.4-0.4-0.5c0-0.1-0.1-0.3-0.1-0.4c-0.2-0.6-0.7-1.1-1.3-1.1
			c-0.3,0-0.7,0-1.3-0.1c-0.4-0.5-0.8-1-1.2-1.5c-0.6-0.8-1.2-1.5-1.8-2.3c-1.4-1.6-2.1-2.3-2.3-2.3c-0.1,0-0.3,0.2-0.5,0.2
			c-0.2-0.1-0.3-0.2-0.3-0.2c-0.4,0.1-1.2,0.6-2.4,1.5c-1,0.8-1.7,1.4-2.2,1.9c-0.5,0.6-1.5,1.7-3.1,3.1c-1.3,1.2-2.8,2.8-4.6,4.8
			c-1.7,2-3,3.7-3.9,5c-1.1,1.6-1.9,2.7-2.3,3.1c0,0,0,0,0,0c-0.5,0.6-2,2.3-2,2.3h0c0,0,0,0,0,0.1c0,0.2-0.2,0.4-0.4,0.6
			c-0.2,0.2-0.4,1.1-0.5,2.7c-0.1,1.7-0.1,3,0,3.8c0.1,0.4,0.2,0.6,0.5,0.6l0.1,0c0,0.3,0,0.6,0.1,0.9c0.1,0.4,0.2,0.6,0.5,0.6
			l0.4,0c0.2,0,0.3,0.1,0.5,0.3c0.2,0.2,1.3,0.5,3.2,0.7c1.4,0.2,2.3,0.3,2.8,0.2c0.3,0,0.5,0,0.6,0c-0.3,0.5-0.9,1.2-1.9,2.2
			c-1.4,1.6-2.4,2.7-3.1,3.2c-1,0.6-1.9,1.5-2.8,2.6c-0.9,1-1.4,1.7-1.4,2.2c0,0.6-0.2,1.1-0.5,1.4c-0.2,0.2-0.2,0.8-0.1,1.9
			l0.2,1.3c0.1,0.5,0.1,0.9,0.1,1.1c-0.1,2.2,0.1,3.4,0.7,3.7c0.1,1.1,0.5,1.6,1,1.6c0.2,0,1.6-0.3,2.7-1c1-0.6,2.2-1,3.5-1l1.3-0.1
			c-0.3,0.3-0.6,0.7-0.9,1c0.1,0,0.1,0,0.2,0c0.6-0.1,1.4-0.2,2.1-0.3c0.1,1.2,0.2,2.4,0.5,3.5c1.3,5.6,5,10,9.6,10.6
			c1-0.7,2.5-1.3,3.4-2.2c0.1-1.1-0.1-2.3-0.4-3.4c-0.3-1.2-0.5-2.3-0.5-3.2c3.1,2.3,6,5.1,9.9,6.3c1.7-1.5,2.8-3.4,2.9-5.2
			L449,78.7z"/>
		<path class="st1" d="M430.7,113.9c0.1-2.3-0.9-4.1-2.2-6.1c-0.5-0.9-1-1.8-1.6-2.7c-2.5-4.3-4.9-7.3-7.2-8.9
			c-4.3-2.7-11.1-2.1-16.5-1.3c-1.8,0.3-3.8,0.6-5.7,1c-1.9,0.3-3.7,0.7-5.5,1c-8.6,1.3-17,2.3-24.7,3.5c-7.9,1.2-10.2,0-15.8,1.3
			c-0.3,0.1-0.5,0.2-0.6,0.5c-0.7,1.6-1.1,3.2-1.1,4.9c0,0.1,0,0.2,0,0.4c0,0,0,0.2,0,0.2c-0.1,2.2,0.4,4,1,5.8
			c0.2,0.6,0.3,1.2,0.5,1.8c0.2,1,0.4,1.9,0.4,2.8c0,0.2,0.2,0.5,0.4,0.6l0.5,0.2c1.5,0.7,2.2,1,2.6,2.5c0,0.2,0.2,0.3,0.3,0.4
			c0.7,0.4,1.4,0.6,2.1,0.8c1.6,0.5,2.2,0.8,2.2,1.7c0,0.2,0.1,0.4,0.2,0.5c0.1,0.1,0.3,0.2,0.6,0.2c0,0,0,0,0,0
			c1.8-0.3,2.9,0.5,3.2,0.8c0.1,0.1,0.4,0.2,0.6,0.2c1.7,0-1.7,1.8,0,1.5c3-0.5,6.6-1.2,9.8-2.1c3.3-0.9,5.1-1.1,10.4-2.2
			c0.4-0.1,9.8-1.6,10.2-1.7c-0.4,0.2-7.4,3-11.7,5c-11,5.1-11.5,4.1-12.9,16.1c-0.1,0.6,0,1.1,0,1.6l0,0.3c0,0.1,0,0.3,0,0.4
			c-0.1,1.2,1,1.3,1.5,1.4c0.2,0,0.5,0.1,0.5,0.2c0,0.1,0.1,0.2,0.1,0.3c2.8,4.1,8.3,4.8,13.5,5.6c2,0.3,4,0.6,5.8,1
			c-0.2,0.3-0.5,0.4-1.1,0.5c-0.7,0.2-1.6,0.4-2.3,1.4c-1.3,0.4-2.9,1-4.7,1.6c-2.7,1-6.5,0.3-9.7,1.1c-1.7,0.5-3.9,0.7-5.9,0.9
			c-4.2,0.4-1.1,2.1-2.7,5.3c0,0.1-0.1,0.2-0.1,0.3l0,0.4c0,0.7,0.6,1.7,2.5,4.7c0.5,0.7,1,1.5,1.3,2c-0.5,0.6-0.9,1.2-1.2,1.8
			c0,0.1-0.1,0.2-0.1,0.3l0,0.5c0,0.8,0.4,1.3,0.8,1.7c0.4,0.4,0.6,0.6,0.5,1l0,0.7c0,0.2,0.1,0.4,0.2,0.5c0.1,0.1,0.4,0.2,0.6,0.2
			c1.2-0.2,2.1-0.5,2.9-0.9c0.2-0.1,0.5-0.2,0.7-0.3l0,0c0.9,0.8,1.7,1.6,3.3,1.4c0.3-0.1,0.7-0.1,1.1-0.3l0.3,0.3
			c1.4,1.4,3.4,3.4,5.8,3.2l0.4-0.1c2.3-0.3,0.1-1.8,3.6-3.5c1.9-0.9,3.7-1.7,4.3-1.9c2-0.5,4-0.8,5.9-1.1c3.9-0.7,7.6-1.4,11.5-2.9
			c0.2-0.1,0.3-0.2,0.4-0.4c0.4-0.7,1-1.5,1.7-2.3c1-1.2,5.2-2.5,5.5-3.7c0.5-2.3,1.4-4.7,2.3-7.1c0.6-1.7,1.2-3.3,1.6-4.7
			c0.3-0.8,0.6-1.1,0.9-1.4c0.4-0.3,0.8-0.7,0.9-1.6c0-0.6,0-1-0.1-1.5c0.2-0.7,0.3-1.3,0.3-1.9c0.1-2.3-0.9-3.5-2.1-5
			c-0.4-0.5-0.9-1.1-1.4-1.8c-0.6-0.9-1.8-1-2.8-1.1c-0.6-0.1-1.2-0.1-1.4-0.3c-1.3-1.2-6.5-1.4-8.3-1.8c-0.7-0.2-1.3-0.3-1.9-0.5
			c0.6-0.1,1.1-0.3,1.8-0.4l1.1-0.2c0.2,0,0.4-0.2,0.6-0.4c2.4-3.5,6-5.6,9.9-7.8c3.8-2.2,7.8-4.5,10.4-8.3c1.3-1.7,2-3.5,2.1-5.5
			c0-0.1,0-0.2,0-0.4C430.7,114.1,430.7,114,430.7,113.9C430.7,113.9,430.7,113.9,430.7,113.9z M373.5,133.9
			c-0.5,0.1-0.5-0.3-0.5-0.3c0-0.7,1.5-2.5,2.5-2.6c0.5-0.1,0.5-0.1,1.1,0.2l0,0.4C376.7,132.9,373.4,132.8,373.5,133.9z
			 M356.5,105.8c10.3-2.5,24.8-3.2,36.2-5.8c1.7-0.4,3.5-1.3,5.1-1.5c0.6,0,1,0,1.4,0.1l0,0.1c0,0.6-0.9,0.3-1,0.7
			c0.1,0.2,0.3,0.2,0.7,0.2l0.6,0c0.2,0,0.3,0,0.4,0.1c0.1,0.2,0.3,0.5,0.3,0.7c0,0.3-0.1,0.4-0.4,0.5c0.1,0,0.2,0.1,0.3,0.1
			c0.3,0,0.7-0.3,1.1-0.4c0.1,0,0.3,0.1,0.4,0.1c-1.1,1.6-2.7,0.7-4,2.3c-0.3-0.1-0.7-0.2-0.9-0.2c-1.1,0.1-1.9,1.1-3.1,1.3l-0.6,0
			c-1.2,0.1-2.5-0.4-3.9-0.3l-0.2,0c-0.8,0.2-1.4,0.6-1.9,0.8c-0.3,0-0.8-0.3-1.2-0.3l-0.2,0c-1,0.1-2.2,1.1-3.1,1.2
			c-0.9,0.1-1.8-0.2-2.7-0.2c-1.2,0.1-2.5,1-3.6,1.1c-0.6,0-1,0-1.4-0.4c-1.7,0.7-3.4,0.9-5.3,1.1c-3.8,0.3-8,0-11.9,0.4l-1.2,0.1
			L356.5,105.8z M369,111l-2.8,0.2c0.9-0.7,2.2-0.9,3.4-1.1l1.6-0.1c1.7-0.1,3.4-0.4,4.8-1.5c0.5,0.2,0.7,0.8,0.9,1.5
			C374.3,110.5,371.7,110.8,369,111z M374.4,112.1c-0.3,0.7-0.7,0.8-1.3,0.9c-0.6,0-1.2,0-1.7,0l-0.3,0c0.7-0.6,1.5-1,2.3-1.1
			C373.8,111.9,374.1,112,374.4,112.1z M356,109c3.7,0.2,6.7,1.1,9.6,2.3c-1.1,0.1-2.4,0.3-3.5,0.4c-2.2,0.2-4.5,0.1-6.2-0.6
			L356,109z M367.2,117.6c0,0.8-1.3,1-2.3,1.1l-0.8,0.1c-0.7-0.1-1.5-0.8-2.6-0.8c-1.5-0.3-3.1,0.4-4-0.8c0.5-0.7,1.2-1,1.9-1.4
			c1.6,1.7,5.7,1.8,7.8,1.8L367.2,117.6z M366.3,113.8c-0.4,0-0.9,0.2-1.3,0.6c-0.6-0.5-1.6-0.5-2.8-0.4c-0.6,0-1.2,0.2-1.9,0.3
			c-1.3,0.1-2.6,0.1-3.2-0.8c0.2-0.1,0.5-0.3,0.5-0.5c0-0.1,0-0.3-0.2-0.2c0.6,0,1.1-0.2,1.7-0.3c3.7-0.3,7.3,0.3,10.4,0.7
			c-0.1,0.7-0.5,0.8-0.9,0.8C368,114.1,367.2,113.7,366.3,113.8z M384.5,118c-1.2,0.1-2.3,0-3.5-0.2l-0.2,0c-0.5,0-0.7,0.5-1.2,0.6
			c-0.2-0.4-0.6-0.3-1-0.7c-1,0.3-2,0.5-2.9,0.5c-2.4,0.1-4.5-0.5-6.9-0.5c-0.1,0-0.1-0.1-0.1-0.1c0-0.3,0.5-0.4,0.5-0.7l6.6-0.3
			c4.4-0.2,8.6-0.6,12.1-1.8c1.1,0.4,3.1-0.2,3.7,1c1.7-1.4,3.8-2.1,5.9-2.7c-0.1,0.3-0.1,0.5-0.2,0.6c-0.1,0.8,0.1,1.4,0.6,1.9
			C394,116,389.2,117.8,384.5,118z M397.8,110.6c-2.8,0.9-6.1,1.5-9.4,1.8c-2.9,0.2-5.8,0.2-8.5-0.1c5-2,9.7-2.5,14.6-3.7
			c-0.2-0.1-0.4-0.1-0.8-0.1c-0.9,0.1-1.8,0.5-2.9,0.6l-0.3,0c-2.2,0.1-5.6,0.5-7.1-0.8c5.6-0.6,9.9-2.2,15.1-3.3
			c0.1,0.1,0.1,0.3,0.1,0.4c0,0.3-0.5,0.7-0.5,1.2l1.7-0.1c-0.9,0.6-2.1,0.9-3,1.5c0.4,0.1,1.2,0.4,1.9,0.4c0.3,0,0.6-0.2,0.8-0.3
			c0.2,0,0.2,0.1,0.2,0.2c0,0.1-0.2,0.4-0.3,0.5l0,0.1c1.1-0.4,2.3-0.7,3.2-1.2C402.1,109.7,399.7,109.9,397.8,110.6z"/>
		<path class="st1" d="M376,44.3c1.2,0.2,4.3-0.3,9.3-1.5l16.6-6.2c-5.6,1.3-11.7,3.4-16.3,4.1l0.2-0.3c0.9-0.9,2.3-0.8,2.9-1.4
			c0.2-0.3,0.4-0.4,0.4-0.7c6.2-1.6,13.3-4,20.2-5.3c0.5,0.1,0.4,0.2,0.1,0.5c-1.8,0.6-3.9,1-5.7,2.3l1.3-0.5
			c5.4-1.2,8.4-2.1,9.1-2.8c0.7-0.7,1.1-1.3,1.3-1.9c0.2-0.6,0.3-1.1,0.3-1.6l-1.3-3.8l-1.6-5.8c-0.4-0.4-1-0.7-1.6-0.8
			c-0.9-0.2-3.3-0.1-7.5,0.3c-1.6,0.2-3,0.3-4.2,0.5c0-0.1,0.1-0.2,0.1-0.4c0.1-0.5,0-1,0-1.3c-0.3-3-2.4-4.5-3.8-6.1
			c-1.2-1.3-1.7-3.1-2.6-4c-1.9-1.6-4.7-1.5-7.1-1.5l-0.3,0.1c-1.1,0.2-2.4,2-3.7,2.3c-0.2,0-0.4,0.1-0.6,0c-3,3.2-4.5,7.9-3.9,14.5
			l0.1,0.9c0.9,0.8,1.6,1.7,2.4,2.6c-3.2,0.9-5.9,1.2-8.3,1.8c-3.6,0.9-5.5,1.7-5.9,1.9c-0.4,0.2-0.6,2.4-1.1,2.7
			C363.2,35,374.8,44.1,376,44.3z M412.4,29.4l-0.2,0.3c-1.5,1.6-5.1,1.6-7.3,2.4C406.3,30.9,410,30.5,412.4,29.4z"/>
		<path class="st1" d="M354.4,90.3c0.6-0.1,1.2-0.1,2-0.5c0.4-1.3,0.7-2.4,0.7-4c0-0.6-0.2-1.2-0.2-2.2c1.8,1.7,2.9,4.1,4.4,6.2
			c1.4,0,2.5,0.4,3.5,0.9c2.5-1.7,4.1-3.1,4.2-5.9c-2.1-2.5-3.6-8.3-8.2-7.8l-0.8,0.1c-1.7,0.5-2.1,1.6-3.4,2.7
			c-0.9-1.3-1.8-3.6-2.6-5.6c0.3-0.2,0.6-0.4,1-0.6c0.2-0.1,0.5-0.2,0.7-0.3c1.4-0.6,2.9-0.9,4.4-0.7c0.5-0.5,1.7-0.2,2.1-0.7
			c0.4-0.5,0.7-0.9,0.7-1c0-0.4,0.3-0.6,1-0.8c0.7-0.2,1.4-0.7,2.1-1.7c0.7-1,0-3.9,0-4.8c0-0.5-0.2-1.1-0.5-1.6
			c-0.2-1.1-1-2-2.5-2.9l-2.3-1.3l-2.3-1.3c-1.6-1-0.7-0.8-0.4-1.3c0.9-1.7,2.1-4.3,3-7.6c0.6-2.4-0.5-4.4-2.7-5.9l-0.7-0.6
			c-0.3-0.2-1.2-0.5-1.5-0.3l-1.7,1.4l-2.4,1.7c-2.5,1.8-4.3,2.3-4.5,2.1c-0.1,0-0.1-0.2,0.2-0.7c0.3-0.5,0.7-1.1,1-1.7
			c0.8-1.4,2.8-3,6.1-4.6c0.8-0.4,1.4-1,1.8-1.7c0.9-1.2,1.7-2.4,2.5-3.6c0.8-1.1-1,0.3-1.6,0.7c0.4-0.6,0.8-1.1,1.2-1.7
			c0.4-0.6,0.1-0.5-0.3-0.2c0.1-0.1,0.2-0.3,0.4-0.5c0.2-0.3,0.5-0.6,1-0.8c1.3-0.7,1.6-1.8,0.8-3.4c-0.1-0.5-0.4-1.1-0.8-1.7
			c-3.1-4.6-5.5-5.9-7.1-3.9c-0.6,0.5-0.9,0.8-1.1,0.8c-1.4-0.1,0.7-3.1-4.6,2.8c-8.7,9.5-12.7,16.2-12.1,20.1c0.4,2,1,4,1.9,6
			c0.4,1,0.8,1.9,1.2,2.9c1.4,2.7,2.6,4.1,3.7,4.2c0.1,0,0.9-0.5,2.5-1.5l1.1-0.7c-0.2,0.5-0.5,1-0.9,1.6c-1.2,2-2.3,3.4-3.1,4.2
			l-1.6,1.9c0,0.2-0.2,0.6-0.7,1c-0.5,0.4-1,1-1.5,1.8c-0.3,1-0.3,2,0,2.8c0.1,0.1,0.2,0.3,0.3,0.6c0,0.1,0,0.3,0.1,0.4
			c0.1,0.1,0.2,0.3,0.4,0.7l0.2,0.7l0.3,0.7l0.1,0.3l0.5,1.1c0.7,1.8,1.3,2.8,1.6,2.8l0.8-0.3l0.7-0.3l0.8-0.3
			c0.4-0.1,2.1-0.2,3.4-0.2c-0.1,0.8-0.1,1.5-0.1,2.4C346.6,84.8,349.6,90.8,354.4,90.3z M347,32.1c-0.8,0.5-0.9,1.5-1.6,1.9l0-1.4
			L347,32.1z M345,35.6c1.5-2.2,3.5-4.1,4.8-6.4c0-0.6-0.3-0.3-0.3-0.6c0,0,0-0.1,0.1-0.5c0.3-0.3,0.5-0.4,0.8-0.5
			c0.5-0.1,0.9-0.1,1.5-0.2c-4.3,6.1-9.4,11.4-13.4,17.7C339.4,41.9,341.8,37,345,35.6z M347,37c0,1.7-2.4,2.9-3.3,4.3
			c0.2-1.3,2.4-2.9,3.3-4.5L347,37z M339.7,49.6l0-0.3c0-1,1-1.4,1-2.1c0-0.3,0-0.4-0.1-0.7c3-3.4,6-7.7,9.7-11.1
			c0.4-0.1,0.4,0,0.4,0.3c-0.9,1.2-2.1,2.3-2.2,4.2C345.2,43,342.5,47.2,339.7,49.6z"/>
		<path class="st1" d="M291.4,60.6c1-0.9,1.9-1.4,2.8-1.3c0,0,0,0,0,0c4.1,1.6,7,1.4,8.8-0.4c0,0,0.1-0.1,0.2,0
			c2.7,1.2,4.7,2.7,5.9,4.2c2.1,0.6,5.3,0,10.1-1.8c0.7-1,1.2-2.7,1.6-4.8c0.3-2.5,0.3-4.7,0.2-6.3l-0.1-2.4c0,0,0,0,0,0
			c0.1-0.5,0.2-1.3,0.2-2c0-0.5,0-0.9,0-1.2c0-0.1,0-0.7-0.6-2.5c-0.4-0.8-0.6-1.6-0.8-2.5c-0.6-1.3-1.8-2.6-3.4-3.8
			c-0.2-0.1-0.4-0.3-0.6-0.4c-0.8-0.6-1.8-1.4-2.7-2.3l-4.3-0.6c0,0,0,0-0.1,0c-5.8-3.4-12.6-3.8-20.5-1.2c-4,3.8-5.8,8.3-5.6,13.7
			c0.6,0.8,1.1,1.5,1.3,2.2c0.3,0.9,0.1,1.6-0.4,2.1C284.5,51.6,287.4,55.7,291.4,60.6z"/>
		<path class="st1" d="M329.6,136.5c0,0-0.1-0.2-0.4-0.1c0,0,0,0,0,0c-0.7-0.1-1.1-0.3-1.2-0.7c-0.1-0.4,0-1.1,0.3-2.1
			c-1.1,1.9-1.1,1.9-1.3,1.8c-0.1-0.1-0.2-0.1,0.3-0.9l-0.3,0.4l-0.3,0.7c-1.1,1.5-1.4,1.7-1.6,1.7c-0.1,0-0.2,0-0.2,0
			c-0.3-0.2-0.2-0.5,0-1.1l0.4-0.7l0.3-0.9c0.9-1.9,0.7-2.1,0.7-2.1c0,0,0,0,0,0c-0.1,0-0.5,0.2-1.2,1.9c-0.8,1.6-1.1,1.8-1.4,1.8
			c-0.1,0-0.2,0-0.3-0.1c-0.2-0.2-0.3-0.7,0.4-2.8c0.2-0.7,0.4-1.4,0.5-2.3c0.2-0.7,0.3-1.2,0.4-1.6c0-0.3,0.1-0.8,0.5-1.4l0.6-1.9
			c0.8-2.2,0.7-2.9,0.6-3.1c-0.6-0.8-0.4-1.3,0-1.6c0.1-0.2,0.2-0.5,0.2-1.2c0-0.4,0.1-0.8,0.1-1.3l0-0.5c0.1-0.4,0.2-1.2,0.5-2.7
			l0.4-1.8l0.6-1.9c0.8-3.8,0.5-4.8,0-5c0,0,0,0-0.1,0l-0.1,0.4c0,0.3,0,0.5-0.1,0.6c-0.1,0.1-0.3,0.2-0.6,0.2
			c-0.1,0-0.2,0.1-0.3,0.2c0,0,0,0,0,0c-0.3,0.2-0.4,0.4-0.5,0.8c0,0,0,0,0,0.1c-0.3,0.3-0.5,0.4-0.7,0.4c-0.1,0-0.2-0.2-0.3-0.4
			c0,0,0,0,0-0.1c0.1-0.5,0-0.5,0-0.5c0,0-0.1-0.1-0.4,0.1c-0.7,0.4-1.4,1.1-2,2.1c-0.4,0.6-0.8,1.1-1.4,1.7l-1.2,1.5
			c-1.1,1.2-1.9,2.3-2.5,3.3c-1.7,2.8-3.5,5.4-5.4,7.6l-0.5,0.5c0,0-0.1,0.1-0.2,0c-0.1,0-0.1-0.1-0.1-0.1c1-9.6,3.6-18.9,3.9-19.6
			c0.1-0.7,0-1.8-0.1-3.4c-0.1-1.4-0.1-2.6-0.1-3.5c0-0.3,0-0.5,0-0.7c-0.1-1.3,0.1-2.4,0.4-3.7c0,0,0-0.1,0.1-0.1
			c0.8-0.4,1.3-1.2,1.4-2.3c0.2-1.2,0.6-2,1.3-2.5c-0.4-0.8-0.5-1.9-0.2-3.1c0.5-1.1,0.5-2,0.3-2.4c-3-2.7-7.4-4.6-13.3-5.7
			c-0.6-0.1-1-0.5-1.7-1.2c-0.6-0.6-1-1-1.5-1.1l-1.8,0.7c-0.1,0-0.1,0-0.2,0c-2.2-2-4.6-2.7-7.4-2.3c-0.3,0.8-1.6,1.6-4.8,2.9
			c-1,0.7-1.7,1.9-2,3.6c-0.2,1.6-0.7,2.7-1.5,3.3c0.7,1.2,0.5,2.2-0.5,3c0.7,0.7,0.9,1.8,0.5,3.1c-0.3,1.4-0.1,2.3,0.5,2.9
			c0,0,0,0.1,0,0.1c-0.5,2.5-0.4,6.6,0.1,11.6c0.2,1.2,0.4,2.9,0.7,4.9c0.8,5.1,1.7,11.5,1.9,14.1c0,0.6,0.2,1.1,0.4,1.6
			c0.7,1.7,1.5,3.4,1.9,7.2c0,0,0,0,0,0c-0.1,0.8-0.2,2.4-0.2,4.7c0.1,4.7-0.4,7.7-1.4,9.1c-0.9,1.1-1.2,2.6-1,4.6l0.4,2.3
			c0.1,0.5,0.4,0.9,0.8,1.2l4.7,3.5c3,2.2,6.5,4.3,10.3,6.5c3.8,2.2,6.2,3.4,7,3.5c0,0,0.1,0,0.1,0c1.4,0,3-2.4,4.9-7.1
			c1.6-4.9,3.1-7.6,4.5-8.2c0.4-0.2,0.8-0.2,1.2,0c0.2,0.1,0.4,0.1,0.5,0c0.1-0.1,0.2-0.3,0.1-1.1c0,0,0,0,0,0
			c0.2-1.5,1.9-5,5.1-10.3C329.7,138.1,329.8,136.9,329.6,136.5z M290.4,124.7C290.4,124.7,290.4,124.7,290.4,124.7
			c-0.1,0-0.1-0.1-0.1-0.1c-0.5-3.2-1.2-6.7-1.9-10.2c-0.9-4.3-1.8-8.7-2.3-12.7c0-0.1,0-0.1,0.1-0.2c0.1,0,0.1,0,0.2,0.1l0.1,0.5
			c0.2,0.9,0.7,1.6,1.2,2.3c0.1,0.1,0.1,0.2,0.2,0.2c0-1.3,0-2.5,0-3.8c0-4.4,0-8.9,0.3-12.9c0-0.1,0.1-0.1,0.1-0.1
			c0.1,0,0.1,0.1,0.1,0.1l0,0.5c0,0.9,0.4,1.7,0.8,2.5c0.4,0.8,0.7,1.6,0.8,2.6l0,0.5c0,1-0.3,1.8-0.7,2.6c-0.3,0.6-0.5,1.2-0.6,1.8
			c-0.2,1-0.1,1.9-0.1,2.9c0,0.7,0.1,1.4,0.2,2.2c0.1,0.8,0.2,1.7,0.2,2.6c0,0.3,0,0.6,0,1l0.1,0.2c0.2,1,0,1.8-0.1,2.7
			c-0.1,0.6-0.3,1.3-0.2,1.9c0,1,0.3,1.9,0.5,2.8c0.2,0.7,0.4,1.4,0.6,2.1c0.2,0.8,0.5,1.7,0.7,2.5c0.3,1.4,0.7,3.5,0,5.3
			C290.5,124.7,290.4,124.7,290.4,124.7z M291.6,131.6c-0.1,0.1-0.1,0.1-0.2,0.1c0,0,0,0,0,0l-0.3,0c-0.1,0-0.1,0-0.1-0.1
			c-0.2-0.5-0.4-1.3-0.5-2c-0.1-1,0-1.9,0.1-2.4c0-0.1,0.1-0.1,0.1-0.1c0.1,0,0.1,0,0.1,0.1c0.5,1.2,0.7,2.5,0.8,3.9l0,0.2
			C291.6,131.4,291.6,131.5,291.6,131.6z"/>
		<path class="st1" d="M117,65.4c0.1-0.4,0.2-0.6,0.3-0.9c0.1-0.3,0.2-0.5,0.3-0.8c-0.4-0.4-1-0.5-1.9-0.5c0,0,0,0,0,0h0
			c-0.1,0-0.1,0-0.1-0.1c0-0.1,0-0.1,0-0.2c1.3-1.2,1.9-3.3,2.5-5.4c0.6-2.2,1.3-4.5,2.8-5.6c-0.1-0.6,0-1.1,0.1-1.5
			c0.2-1.7,0.9-3.4,1.9-4.6c-0.1-0.9-0.3-1.8-0.5-2.8c-0.6-3-1.2-6.1-0.8-8.8l0-0.4c-0.8,0.7-1.2,0.9-1.7,0.9c0,0,0,0,0,0
			c-0.4,0-0.7-0.3-1.1-0.7c-0.3-0.3-0.7-0.6-1.2-0.9c-10.8-6.2-26.5-3.1-36.9-1c-0.3,0.1-0.6,0.1-0.9,0.2c-0.4,0.1-0.8,0.1-1.2,0.2
			l-0.8,0.2c-1.3,0.3-2.8,0.8-4.4,1.3c-1.4,0.5-2.9,1-4.5,1.4l-0.1,0c-0.8,0.2-1.6,0.4-2.3,0.4c-2.4,0.5-4.6,1-6.4,1.5
			c-3.1,0.9-6.5,2.2-9.2,3.3c-3.7,1.6-7.4,3.4-11,5.2c-2.1,1-4.2,2.1-6.3,3c-3.2,1.5-6.4,2.7-9.3,3.6c-1.2,1.1-2.8,2.1-4.5,3.1
			C15.4,58.3,11,61,13,65c0.3,0.6,1,1.4,1.7,2.2l0.1,0.1c0,0,0,0.1,0,0.2c-0.5,1.5,0.1,2.8,0.7,4.1c0.3,0.7,0.7,1.4,0.8,2.2
			c1.1,0.3,2,1.5,2.8,2.6c0.9,1.2,1.9,2.4,3,2.7c0.1,0,0.1,0.1,0.1,0.1c0,0.5,0.2,1,0.5,1.6c0.2,0.4,0.4,0.9,0.5,1.3
			c1.2,0.1,2.4,1.2,3.6,2.2c1.5,1.2,2.8,2.4,4,1.8c0.1,0,0.1-0.1,0.2-0.2c0.1-0.1,0.1-0.2,0.3-0.3c0,0,0.1,0,0.1,0
			c0,0,0.1,0,0.1,0.1l0.1,0.3c0.1,0.1,0.1,0.3,0.1,0.5c0,0.1,0,0.3,0.1,0.5c0.2-0.1,0.3-0.2,0.6-0.3c1.8-1.2,3.6-2.5,5.4-3.8
			c3.2-2.3,6.4-4.8,10-6.4c1.7-0.7,3.3-1.2,4.9-1.4c0.1,0,2.2,0.2,2.7,1c0.1,0.1,0.1,0.3,0.1,0.5c0.1,0.1,0.1,0.1,0.2,0.2l0,0
			c0,0,0,0,0,0c0.4,0.7,0.6,1.5,0.6,1.5c0,0,0,0.1,0,0.1c-0.1,0.3-0.4,1.3-0.5,2.9c-0.1,1.5-0.4,2.6-0.9,3.2l0.7,0.6
			c0.1,0,0.1,0.1,0,0.2c-0.7,1.3-1.1,3.8-1.2,6.7c-0.1,3-0.3,5.1-0.7,6.2c0.7,1.3,0.8,3.1,0.3,5.3c-0.4,2.3-0.2,4.1,0.4,5.3
			c0,0,0,0.1,0,0.1c-0.6,2.4-1.2,12.1-1.2,16.9c0.1,4.8-0.3,8.3-1.1,10.7c-0.1,0.6,0,1.7,0.4,3.2c0.5,1.9,0.1,2.6-0.3,2.9
			c0.1,0.7,0.5,2.7,1,6.4c0.7,4,1.3,6.6,1.9,8.4c0.6,1.9,1.8,3.7,3.8,5.6c0,0,0,0,0,0c2.4,3.9,5.8,5.9,10,5.9c1-1.6,2.9-2.4,5.8-2.4
			l1.3-1.4c0-2.1,0.2-3.3,0.8-3.9c0,0,0.1,0,0.1,0c0.5,0,1.1-0.4,1.7-1.1c1-0.8,1.8-1.1,2.4-1.2c0.5-0.5,1-1.5,1.5-2.8
			c0.4-1.1,0.8-1.9,1-2.5c0.1-0.3,0.2-0.6,0.3-0.7c0.2-0.6,0.1-2-0.3-4.5c-0.4-1.9-0.3-3.5,0.2-4.5c-1-0.6-1.8-1.8-2.4-3.6
			c-0.5-1.8-0.9-2.9-1.2-3.3c0,0,0-0.1,0-0.1c0.6-2.1,0.8-4.9,0.9-9.4c0.1-3.9,0.4-12.7,0.5-14.2c-0.8-1.2-1.1-2.7-0.7-4.5
			c0.4-2.1,0.3-3.2-0.1-3.7c0,0,0-0.1,0-0.1c0.3-1.8,0.5-4.2,0.8-7.2c0.1-0.7,0.1-1.4,0.2-2.1c0.3-3.7,0.4-7,0.5-9.7l0-1.2
			c0-0.9,0.1-4.1,0.4-9.4c0,0,0-0.1,0.1-0.1c0.4-0.3,0.9-1,1.4-1.9c0.6-1.1,1-1.6,1.4-1.8c0-0.2-0.1-0.4-0.4-0.6
			C85.2,70.3,85,70,85,69.5c0,0,0-0.1,0-0.1c0,0,0.1,0,0.1,0c0.2,0,0.4-0.1,0.6-0.2c0.2-0.3,0.5-0.4,0.7-0.5
			c0.2-0.1,1.2-0.8,2.5-1.1c0.7,0,1.2-0.1,1.7-0.2c1.4-0.2,2.8-0.7,4-1.4c0,0,0,0,0.1,0c0.4,0,0.8,0.1,1.1,0.2
			c0.5,0.1,1.1,0.2,1.6,0.1c0.4,0,0.7-0.1,1.1-0.4c0,0,0.1,0,0.2,0c1.2,0.7,2.8,0.6,4.2,0.5c0.6-0.1,1.3-0.1,1.9-0.2
			c0.8-0.1,1.6-0.2,2.4-0.3c0.6,0,1.4-0.1,2,0c0,0,0-0.1,0.1-0.1c0,0,0,0,0-0.1c0-0.1-0.2-0.2-0.3-0.3c-0.2-0.1-0.3-0.2-0.3-0.3
			c0-0.1,0.1-0.1,0.1-0.1l0.1,0c0.3-0.2,0.4-0.2,0.7-0.2c0,0,0,0,0.1,0c0.6,0,1.1,0.4,1.5,0.8c0.3,0.3,0.6,0.6,0.9,0.7
			c0.2,0,0.3,0,0.5,0c0.6,0,1.3-0.2,2-0.4C115.3,65.7,116.1,65.5,117,65.4z M73.5,53.9c0.5-0.1,1.1-0.1,1.7,0c0.3,0,0.7,0.1,1,0
			c0.1,0,0.1,0,0.1,0.1c0,0.1,0,0.1,0,0.2c-0.3,0.2-0.8,0.4-1.2,0.5c-1.1,0.3-1.6,0.4-2.7,0.7c0,0,0,0,0,0c0,0-0.1,0-0.1-0.1
			c0,0,0-0.1,0-0.2C72.5,54.4,72.8,54.1,73.5,53.9z M55.4,70.7c-1.5,0.6-3,1.4-4.7,2.2c-1.5,0.7-3,1.5-4.5,2.1
			c-1.2,0.5-2.5,0.9-3.5,1.3c0,0,0,0,0,0c0,0-0.1,0-0.1,0c0,0-0.1-0.1,0-0.2c0.5-1.5,1.5-2.5,3.6-3.3c0.7-0.3,1.5-0.6,2.3-0.9
			c0.6-0.2,1.3-0.5,1.9-0.7c1.2-0.5,1.7-0.7,3-1.2c1.9-0.7,3.3-1.2,4.6-1.6c0.1,0,0.1,0,0.2,0.1c0,0,0,0.1,0,0.2
			c-0.2,0.3-0.5,0.9-0.9,1.6c0,0-0.1,0.1-0.1,0.1c-0.2,0-0.3,0.1-0.5,0.1C56.2,70.5,55.8,70.6,55.4,70.7z M43.7,66.4
			c0-0.1,0-0.1,0.1-0.2c0.6-0.4,1.2-0.8,1.9-1.2c1.4-0.9,2.8-1.9,4.3-2.5c1-0.4,1.9-0.6,2.8-0.6c0.1,0,0.1,0,0.1,0.1
			c0,0.1,0,0.1-0.1,0.2c-0.6,0.3-1.3,0.7-2,1.2c-1.5,0.9-3,1.8-4.5,2.4l0,0c-0.8,0.4-1.6,0.7-2.4,0.7c0,0,0,0,0,0
			C43.8,66.5,43.7,66.4,43.7,66.4z M55.8,97.3c0.1-1.5,0.4-3.1,0.7-4.7c0.2-1,0.4-1.9,0.5-2.8c0-0.1,0.1-0.1,0.1-0.1
			c0.1,0,0.1,0.1,0.1,0.1c0.1,0.8,0,2.3-0.1,3.5l0,0.1c-0.2,3.1-0.4,4.7-0.6,7.8c0,0.1-0.1,0.1-0.1,0.1c0,0,0,0,0,0
			c-0.1,0-0.1,0-0.1-0.1C55.7,100.1,55.7,98.8,55.8,97.3z M57,154.6C57,154.6,57,154.6,57,154.6c-0.1,0-0.1,0-0.2-0.1
			c-1.5-3.6-1.8-10.5-1.9-15.6c0-0.3,0-0.6,0-1c0-0.4,0-0.9-0.1-1.3c0-1,0.1-2.4,1-2.8c0,0,0.1,0,0.1,0c0,0,0.1,0.1,0.1,0.1
			c0.3,7.6,0.7,14.9,1.1,20.5C57.1,154.5,57.1,154.6,57,154.6z M58.1,141.6C58,141.6,58,141.6,58.1,141.6c-0.1,0-0.1,0-0.1,0
			c0,0-0.1-0.1-0.1-0.1c-1.2-7.1-1.9-15.7-2-24.2c-0.1-5.3,0-9.8,0.3-13.2c0-0.1,0-0.1,0.1-0.1c0.1,0,0.1-0.1,0.2-0.1
			c0.2-0.1,0.3-0.2,0.5-0.2c0.2,0,0.4,0.2,0.6,0.4c0.1,0.1,0.2,0.2,0.3,0.2c0,0,0,0,0.1,0.1c0.3,0.8,0.3,1.8,0.3,2.8
			c0,0.6,0,1.2,0,1.8c0,0.5,0,1,0,1.4c0,0.1,0,0.1-0.1,0.1c-0.1,0-0.1,0-0.2-0.1c-0.4-0.6-0.5-1.4-0.6-2.3c-0.1-0.7-0.2-1.3-0.4-2
			c0,0.4,0,0.9,0,1.4c0,0.8,0,1.6,0,2.3c0,0.9,0,1.9,0,2.8c0,2.1,0.2,3.6,0.5,4.9c0,0,0,0.1,0,0.1c-0.2,0.9-0.3,1.9-0.3,3
			c0,1.2,0.2,2.5,0.4,3.8c0.2,1.3,0.4,2.6,0.5,4.1c0.1,2.8,0.2,4.2,0.3,7.1c0,0.7,0.1,1.3,0.2,1.9c0,0.5,0.1,0.9,0.1,1.3
			C58.6,140.2,58.6,141.2,58.1,141.6z M59.4,120.2C59.4,120.2,59.4,120.2,59.4,120.2c-0.1,0-0.1,0-0.2,0c-0.8-0.6-1-1.4-1.2-2.4
			c-0.1-0.9-0.1-2-0.1-3.1c0-0.7,0-1.3,0-1.8c0-0.1,0-0.1,0.1-0.2c0.1,0,0.1,0,0.2,0.1c0.2,0.5,0.4,1.5,0.5,2.2c0.3,2,0.4,3,0.7,5
			C59.5,120.1,59.5,120.2,59.4,120.2z M61.4,63.3C55.2,66,49.1,68.9,44.5,71c0,0,0,0-0.1,0c0,0-0.1,0-0.1-0.1c0-0.1,0-0.1,0-0.2
			c2.2-3.1,6.6-5.9,12.7-8c0.2-0.1,0.5-0.2,0.8-0.3c0.4-0.2,0.7-0.3,1.1-0.5c0.7-0.2,1.3-0.3,1.7,0c0.4,0.2,0.6,0.6,0.8,1.1
			C61.5,63.2,61.4,63.2,61.4,63.3z M62.6,58.4c-0.4,0.2-0.8,0.4-1.2,0.7c-1.3,0.7-2.6,1.4-4,1.9c-0.8,0.3-1.6,0.4-2.2,0.4
			c-0.3,0-0.5,0-0.8-0.1c-0.1,0-0.1-0.1-0.1-0.2c0.2-1.2,1.2-1.6,2-1.9c0.4-0.1,0.9-0.2,1.3-0.4c0.4-0.1,0.8-0.2,1.2-0.3
			c0.3-0.1,0.6-0.3,1-0.4c0.4-0.2,0.7-0.3,1.1-0.4c0.8-0.3,1.4-0.3,1.9,0.5C62.7,58.2,62.7,58.2,62.6,58.4
			C62.6,58.3,62.6,58.3,62.6,58.4z M62,55.5c-0.2,0.1-0.5,0.1-0.8,0.2c-0.4,0.1-0.8,0.1-1.2,0.3c-2.2,0.7-4.7,2.1-7.4,3.5
			c-2.1,1.1-4.2,2.3-6.2,3.1c-1.6,0.7-2.9,1-4.2,1.1c0,0,0,0,0,0c0,0-0.1,0-0.1-0.1c0,0,0-0.1,0-0.1c0.6-2.4,2.4-3.4,4.3-4.2
			c0.9-0.4,1.8-0.6,2.9-1c0.9-0.3,1.8-0.5,2.7-0.9c1.3-0.5,2.4-1,3.6-1.6c1.3-0.6,2.5-1.2,3.8-1.6c1.4-0.5,2.7-0.6,4-0.6
			c0,0,0.1,0,0.1,0.1c0,0,0,0.1,0,0.1C63.2,54.9,62.7,55.2,62,55.5z M64.5,57.8c-0.1,0-0.2,0.1-0.3,0.1c0,0-0.1,0-0.1,0
			c-0.1-0.1-0.1-0.1-0.1-0.2L64,57.3c0-0.1,0-0.1,0.1-0.2c0.5-0.3,1.2-0.7,1.9-0.9c1-0.3,1.9-0.4,2.5-0.4c0.1,0,0.1,0,0.1,0.1
			c0,0.1,0,0.1-0.1,0.2c-1.1,0.8-2.5,1.2-3.8,1.6L64.5,57.8z M72.9,60c-0.6,0.1-0.9,0.2-1.4,0.4c-0.5,0.1-1.1,0.4-1.7,0.7
			c-0.5,0.3-1.1,0.5-1.6,0.7c-0.2,0.1-0.5,0.1-0.8,0.1c-0.6,0-1.2-0.2-1.7-1.1c0,0,0-0.1,0-0.2c0.5-0.8,1.6-1.5,2.9-1.8
			c2.1-0.6,4.8-0.5,6.6-0.4l0.5,0l0.1,0c0.1,0,0.1-0.1,0.1-0.4L76,57.5c0,0,0-0.1,0-0.1c0,0,0.1-0.1,0.1-0.1c0.6,0,1.3-0.1,2-0.3
			l0.1,0c1.1-0.2,2.4-0.6,3.7-1c1.9-0.6,3.9-1.2,6-1.5c1.7-0.3,4-0.5,6.1,0.1c0,0,0.1,0,0.1,0.1c0,0,0,0.1,0,0.1
			c-0.3,0.5-0.7,0.7-1.2,1c-0.4,0.3-0.9,0.5-1.1,0.9c0,0-0.1,0.1-0.1,0.1c0,0-0.1,0-0.1,0c-0.5-0.4-1.1-0.6-2.2-0.4
			c-0.6,0.1-1.2,0.3-1.8,0.5c-0.6,0.2-1.2,0.3-1.7,0.4c-0.4,0.1-0.8,0.1-1.2,0.1c-0.1,0.1-0.3,0.3-0.4,0.4c-0.2,0.3-0.4,0.5-0.7,0.7
			c0,0,0,0,0,0c-1.4,0.3-2.8,0.4-4.4,0.6C77,59.2,74.9,59.5,72.9,60z M90.7,62.4c-0.4,0.4-0.9,0.6-1.6,0.8c-0.2,0-0.4,0-0.6,0
			c-0.4,0-0.8,0-1.2-0.1l-0.1,0c-0.1,0-0.1,0-0.1-0.1c0-0.1,0-0.1,0-0.2c0.3-0.2,0.6-0.3,1.1-0.4c0.9-0.2,1.4-0.2,2.4-0.4
			c0.1,0,0.1,0,0.2,0.1C90.8,62.3,90.8,62.3,90.7,62.4z M104.9,61.4c-1.2,0.5-2.7,0.8-4.4,1c-1.3,0.1-2.6,0.2-3.9,0.2
			c-0.6,0-1.3,0-1.9,0c-0.9,0-1.7,0-2.6,0c0,0,0,0,0,0c-0.1,0-0.1,0-0.1-0.1c0-0.1,0-0.1,0-0.2c0.4-0.4,1.1-0.7,1.9-0.8
			c1.1-0.1,2.2-0.1,3.2,0c0.2,0,0.5,0,0.7,0c1.3-0.3,2.4-0.6,3.8-0.7c1.1-0.1,2.2,0,3.3,0.2c0.1,0,0.1,0.1,0.1,0.1
			C105,61.4,105,61.4,104.9,61.4z M107.8,62.5L107.8,62.5c0,0-0.1,0-0.1,0c-0.7,0-1.5-0.3-1.7-0.9c0-0.1,0-0.1,0-0.2
			c0,0,0.1-0.1,0.1,0c0.5,0.2,0.8,0.2,1.3,0.4c0.5,0.1,0.8,0.3,0.8,0.3c0.1,0,0.1,0.1,0.1,0.1C108.3,62.5,108.1,62.5,107.8,62.5z
			 M107.9,60.3c-0.3,0-0.7,0-1.1,0c-0.5,0-1,0-1.5,0c-2.3,0.2-3.4,0.3-5.7,0.5c-1.2,0.1-2.2,0-3.3-0.2c-1-0.2-2-0.3-3-0.2
			c-0.9,0.1-1.6,0.4-2.3,0.9c0,0-0.1,0-0.1,0c-1-0.4-2.2-0.4-3.9-0.1c-0.7,0.1-1.5,0.3-2.2,0.5c-0.6,0.1-1.2,0.3-1.8,0.4
			c-0.5,0.1-0.9,0.2-1.4,0.2c0.6,0.4,1.3,0.4,1.9,0.5c0.7,0.1,1.4,0.1,1.9,0.7c0,0,0,0.1,0,0.1c0,0.1-0.1,0.1-0.1,0.1
			c-0.3,0.1-0.7,0.2-1.1,0.3c-0.5,0.1-1,0.3-1.4,0.4c-0.4,0.1-0.9,0.2-1.3,0.2c-0.4,0-0.7,0-1-0.2c0,0-0.1,0-0.1-0.1
			c-0.1-0.1-0.1-0.3-0.2-0.4c-0.1-0.3-0.3-0.6-0.3-0.9c0-0.3,0-0.5,0.1-0.8c0-0.1,0-0.2,0.1-0.4c0-0.1,0-0.1,0.1-0.1
			c2.7-1,6.3-1.9,10.5-2.5c6.7-1.1,13.7-1.1,19.4-0.2c0,0,0.1,0,0.1,0.1c0,0,0,0.1,0,0.1C110,60.1,109,60.2,107.9,60.3z M97.8,54.7
			c0-0.1,0-0.1,0.1-0.2c0.9-0.4,2.1-0.7,3.1-0.8c1.4-0.1,2.8,0.1,4.1,0.3c0.1,0,0.1,0.1,0.1,0.1c0,0.1,0,0.1-0.1,0.2
			c-0.6,0.2-1.4,0.3-2.1,0.3l-0.1,0c-1.4,0.1-2.8,0.2-4.2,0.2c-0.3,0-0.5,0-0.8,0C97.9,54.8,97.8,54.8,97.8,54.7z M105.4,55.9l0-0.3
			c0-0.1,0.1-0.3,0.2-0.4c0-0.1,0.1-0.2,0.2-0.3c0,0,0.1-0.1,0.1-0.1l0.3,0c0,0,0,0,0,0c0.4,0,0.5,0.4,0.6,0.8c0,0.1,0,0.2,0.1,0.3
			c0,0,0,0.1,0,0.1c0,0-0.1,0.1-0.1,0.1c-0.4,0-0.7,0-1.1,0.1c0,0,0,0,0,0c0,0-0.1,0-0.1,0C105.4,55.9,105.4,55.9,105.4,55.9z
			 M110.3,35.4c-4.2-0.2-9.1-0.3-13.7,0.2c-1.8,0.2-3.7,0.6-5.1,1c0,0,0,0,0,0c0,0,0,0,0,0c-0.5-0.1-0.9-0.5-1.2-0.8
			c-0.4-0.4-0.8-0.8-1.7-0.7L88,35.2c-0.1,0-0.1,0-0.1-0.1c0-0.1,0-0.1,0-0.2c0.7-0.9,1.5-1.2,2.5-1.4c1.1-0.2,2.2,0,3.5,0.2
			c1.1,0.2,2.3,0.3,3.4,0.2c0.1,0,0.3-0.1,0.5-0.1c0.2-0.1,0.4-0.1,0.6-0.1c0,0,0,0,0.1,0c0.3,0.1,0.5,0.1,0.8,0.2
			c0.4,0.1,0.8,0.1,1.1,0.4c0.7-0.7,2-1.3,3.4-1.4c2.7-0.2,5.8,0.8,6.7,2.3c0,0,0,0.1,0,0.2C110.4,35.4,110.4,35.4,110.3,35.4z"/>
		<path class="st1" d="M178.7,139.5C178.6,139.5,178.6,139.4,178.7,139.5c-0.1-0.1-0.1-0.2-0.1-0.2c0.3-0.9,0.8-2.6,1.2-5.5
			c0.5-2.3,1.1-4.6,2-6.5c-0.6-1.1-0.9-3.9-1.1-8.5l-2.8-5.3l-3.3-6c-1.3-1.9-2.7-3.3-3.6-4.3c-1.4-1.7-3-2.8-4.9-3.5
			c-0.1,0-0.1-0.1-0.1-0.1c0-0.1-0.1-0.3-0.4-0.6c-0.3-0.3-0.4-0.5-0.5-0.8l-2,0.1c0,0-0.1,0-0.1,0c-1.6-1-5-1.3-10.3-1.1
			c-0.1,0-0.1,0-0.1-0.1c0,0,0-0.1,0-0.2c0-0.1,0.1-0.2,0.2-0.4c0.1-0.4,0.4-1,0.7-1.8c0.3-0.6,0.5-1.2,0.7-1.8
			c0.2-0.5,0.3-0.9,0.5-1.3c0.1-0.4,0.5-1.4,1.1-2.8c0.2-0.6,1.3-3.9,5.2-15.9l0.2-0.6c0.6-1.5,1.2-3.3,1.5-5.2c0,0,0-0.1,0.1-0.1
			c2.6-1.8,4.1-5,4.8-9.6c-1.7-10.7-4.5-16.2-8.8-16.9c0,0-0.1,0-0.1-0.1c0,0,0-0.1,0-0.1c0.3-0.8,0.1-1.4-0.8-2.1
			c-0.8-0.6-1.3-1.1-1.4-1.6c-1.9,0.7-3.8,0.8-5.8,0.2c-2.5,0.8-4.7,2.2-6.4,4.1c-1.7,2-3.6,5.2-5.4,9.1l-1.6,3.5l-1.2,2.6
			c-0.2,0.3-0.3,0.5-0.4,0.7c-0.1,0.2-0.2,0.3-0.2,0.4c-9.8,27.3-19.9,66.8-20.2,89.5c0,0,0,0.1-0.1,0.1c-0.5,0.4-0.7,1.1-0.7,2.2
			c1.7,6.3,5.9,11.2,12.3,14.4c2.4-0.1,3.8-0.7,4.3-1.7c0,0,0.1-0.1,0.1-0.1c0.2,0,0.5,0.2,0.8,0.4c0.2,0.1,0.3,0.1,0.4,0.2
			c0,0,0.1,0,0.1,0.1c1.8-2.7,2.6-6.3,2.4-11c0,0,0-0.1,0-0.1c0.3-0.4,0.6-0.8,0.7-1.5c0.2-0.8,0.5-1.3,0.7-1.6l-0.7-0.6
			c-0.1,0-0.1-0.1,0-0.2c0.4-1,1.3-3.7,2.6-8.4c1.3-4.7,2.2-7.5,2.6-8.5c0-0.1,0.1-0.1,0.1-0.1c0.3,0,0.6,0.1,0.9,0.4c0,0,0,0,0,0
			c0.1,0.2,0.3,0.3,0.5,0.3c6.6-7.7,13.2-10.6,19.7-8.7c0.1,0,0.1,0.1,0.1,0.1c0.2,5.7-0.8,11.8-2.9,18.2c0.9,0.6,1.1,1.9,0.7,4.1
			c-0.4,1.7-0.5,3-0.4,3.8c1,1.1,1,2.2,0.2,3.3c3.2,7.9,7,13.1,11.6,16c4.7,2.1,10.5-0.8,17.1-8.6c0.1-0.1,0.5-0.9,1.3-2.5
			c0.6-1.3,1.3-2.1,2.1-2.4c-0.2-1.3-0.1-3.4,0.3-6c0.4-3,0.2-4.8-0.7-5.7C190.4,142.8,186.4,141.8,178.7,139.5z M122.3,127.6l0,0.2
			l-0.1,0l0.1,0c0,0.2-0.1,0.3-0.1,0.4c0,0-0.1,0-0.1,0c-0.1,0-0.1,0-0.2,0l-0.3-0.1c-0.1,0-0.1-0.1-0.1-0.1c0-0.6,0-1.5,0.1-2.3
			c0.2-1.1,0.6-2,0.8-2.5c0-0.1,0.1-0.1,0.2-0.1c0.1,0,0.1,0.1,0.1,0.1C122.9,124.6,122.6,126.1,122.3,127.6z M124.5,119.2
			c0,0.1-0.1,0.1-0.1,0.1c0,0,0,0,0,0c-0.1,0-0.1-0.1-0.1-0.1c-0.6-4,0.9-10.7,2.2-15.7c0.1-0.3,0.1-0.6,0.2-0.9
			c0.1-0.4,0.2-0.8,0.3-1.2c0.3-1,0.7-2.3,1.8-2.3c0,0,0.1,0,0.1,0.1c0,0,0,0.1,0,0.1C127.5,104.9,126.2,111.1,124.5,119.2z
			 M132.1,86c-0.2,0.7-0.2,1-0.4,1.6c-0.2,0.6-0.2,1.3-0.3,2c-0.1,0.6-0.2,1.3-0.3,1.9c-0.2,0.9-0.6,1.9-1.5,2.4c0,0,0,0-0.1,0
			c0,0,0,0-0.1,0c0,0-0.1-0.1-0.1-0.1c-0.2-0.8-0.1-2.1,0.3-3.6c0.6-2.5,1.8-5.4,2.6-7.3l0.3-0.7c0-0.1,0-0.1,0-0.1c0,0-0.1,0-0.1,0
			l-0.3-0.1c0,0-0.1,0-0.1-0.1c0,0,0-0.1,0-0.1c0.3-0.7,0.5-1.5,0.7-2.3l0-0.1c0.3-1.3,0.7-2.7,1-4.3c0.5-2.2,1.1-4.6,1.7-6.9
			c0.6-1.9,1.4-4.5,2.6-6.6c0-0.1,0.1-0.1,0.1-0.1c0.1,0,0.1,0.1,0.1,0.1c0.1,0.4,0.1,1,0,1.5c0,0.5-0.1,1.1,0,1.4
			c0,0.1,0,0.1,0,0.2c-0.4,0.4-0.8,1.1-1.2,2.4c-0.2,0.6-0.4,1.4-0.5,2.1c-0.2,0.7-0.3,1.3-0.5,1.9c-0.1,0.5-0.3,0.9-0.5,1.3
			c0,0.2,0,0.4,0.1,0.6c0.1,0.3,0.1,0.6,0.1,0.9c-0.4,1.6-1,3.2-1.6,5C133.5,81.3,132.7,83.7,132.1,86z M136.5,82.4
			c-0.2,1.9-0.5,3.9-0.9,5.8c-0.4,1.7-0.8,3.1-1.3,4c0,0-0.1,0.1-0.1,0.1c0,0,0,0,0,0c0,0-0.1,0-0.1,0c-0.7-0.6-0.5-2-0.2-3.2
			c0.1-0.6,0.3-1.2,0.4-1.8c0.1-0.6,0.3-1.1,0.4-1.7c0.1-0.4,0.2-0.9,0.3-1.4c0.1-0.5,0.2-1,0.3-1.5c0.2-1.1,0.5-1.9,1.2-2.3
			c0,0,0.1,0,0.2,0c0,0,0.1,0.1,0.1,0.1C136.7,81.1,136.6,81.7,136.5,82.4z M137.4,77.5l-0.1,0.3c-0.1,0.3-0.1,0.5-0.3,0.5
			c0,0,0,0-0.1,0l-0.2,0c0,0-0.1,0-0.1-0.1c0,0,0-0.1,0-0.1c0.1-0.7,0.2-1.8,0.4-2.8c0.3-1.4,0.8-2.7,1-3.3c0-0.1,0.1-0.1,0.2-0.1
			c0.1,0,0.1,0.1,0.1,0.2C138.3,73.6,137.9,75.6,137.4,77.5z"/>
		<path class="st1" d="M269.9,127.6c0.1,0,0.1,0,0.1,0.1c0.2,0.4,0.4,0.9,0.7,1.3c0.7,1.4,1.4,2.8,2,4.3c0.4,1,0.6,1.8,0.7,2.6
			c0.1-0.6,0.3-1.1,0.3-1.5c0-0.4-0.4-1.8-0.9-3.7c0,0,0,0,0,0c0,0-0.1,0-0.1,0c-0.3-0.4-0.8-1.2-1.1-1.9c-0.5-1-0.8-2-1-2.6
			c0-0.1,0-0.1,0.1-0.2c0.1,0,0.1,0,0.2,0c0.4,0.5,0.8,1.1,1.1,1.8c-0.7-2.4-1.4-4.7-1.6-5.9c-0.6-3.1-1-5.2-1-5.9
			c0.4-0.4,0.7-1.3,0.7-2.3l-0.6-0.9c1.3-3.3,0.9-6.2-1.3-8.7l2.1-0.3c0.3-2.1-0.3-4-1.6-5.7l-0.5-0.8c0.2-0.3,0.5-1,0.8-1.9
			c0.3-1,0.6-1.8,0.8-2.1l-3.2-5.6l-3.2-5.6l0-3.2c-1.1,0-1.7-0.3-2.1-0.9l-0.8,0.9c-0.9-0.5-1.6-0.9-1.8-1.2
			c-0.9-0.6-1.6-1.1-2.1-1.4c-0.5-0.3-1.2-0.3-1.8,0c-7.4-4.7-13.9-8-19.4-10c-0.4,0.4-1.7,0.7-3.7,0.7c-0.7-0.6-1.8-0.8-3.3-0.3
			c-1.6,0.4-2.6,0.6-3.3,0.2c-0.1,0.1-2.7,1.7-7.7,5c-4,2.4-7,4.6-9,6.2c0.3,0.7,0.2,1.5-0.2,2.5c-0.4,1.3-0.7,2.1-0.7,2.2l-7.1,9.7
			c-1.2,1.7-2,3.7-2.2,5.8c-0.3,2.9-0.4,6.3-0.5,8.1c-0.5,3.8-0.5,6.3,0,7.3c-0.5,1.3-0.6,2.9-0.1,5c0.5,1.9,0.5,3.5-0.1,4.7
			c1.9,3,3.3,6.2,4.2,9.8c0.9,0.6,2.2,1.8,3.9,3.6c1.7,1.6,3.3,3,4.7,4c1.3,0.9,2.7,1.4,4.3,1.4c0,0.3,0.1,0.6,0.4,0.9
			c0.1,0.2,0.3,0.3,0.3,0.7c7.4,1.3,12.5,0.8,15.3-1.4c4-3.3,6.9-5.4,8.8-6.4l3.8-4.7c1.9-2.5,3.4-4.2,4.3-4.9
			c0.9,3,4.3,11.5,5.4,12.3c0.5,0.6,0.8,1.5,0.8,2.5c0.4,0.3,1.2,1.3,2.3,3c1.2,1.3,2.2,2.4,3.4,2.8c2.4,0,3.8,0.5,4.3,1.5
			c2.7-1.3,4.4-1.9,5.2-1.4c0-0.4,0.1-0.7,0.3-0.9c0.3-0.3,0.4-0.6,0.4-0.9c1.4,0,2.7-1.6,3.6-4.7l-0.6-0.9c0.3-1.1,0.6-2,0.8-2.9
			c-0.7-0.1-1.1-1.1-1.5-2c-0.2-0.4-0.3-0.9-0.5-1.4c-0.1-0.4-0.3-0.9-0.4-1.3c-0.1-0.3-0.3-0.7-0.4-1.1c-0.2-0.4-0.3-0.8-0.5-1.2
			c-0.3-0.9-0.4-1.6-0.1-2.2C269.8,127.7,269.8,127.6,269.9,127.6z M243.6,98c0,0-0.1,0.1-0.1,0.1c-0.2,0.2,0.2,1,0.4,1.7
			c-0.3,0.7-0.4,1.3-0.2,2.1c-0.3,1-0.7,2.1-1.1,3.2c0,0,0,0-0.1,0c-1.8,5.4-5,8.9-9.6,10.3l-3.6,1.7c-4.1,2.2-7.5-1.1-10-9.9
			c0-0.3,0.1-0.6,0.4-0.9c0.3-0.3,0.4-0.6,0.4-0.9l-0.8-0.7c3.8-8.1,11.9-13.1,24.2-15.1c0,0.2,0.1,0.5,0.2,0.8c-0.1,0-0.1,0-0.2,0
			c0,1.2,0.2,1.9,0.6,2.4c-0.5,0.9-0.7,1.8-0.3,2.8c0.2,0.5,0.3,0.9,0.3,1.3c-0.2,0-0.4,0.1-0.7,0.1C243.5,97.5,243.5,97.7,243.6,98
			z M269.6,125.9l-0.3,0.1c-0.1,0-0.1,0-0.2,0c-0.1,0-0.1-0.1-0.1-0.1c-0.4-1.1-1-2.9-1.4-4.4c-0.5-2.2-0.9-4.4-1-5.6
			c0-0.1,0.1-0.2,0.2-0.2c0.1,0,0.2,0.1,0.3,0.2c1.1,2.5,1.9,5.7,2.6,8.8l0.1,0.4C269.8,125.5,269.9,125.7,269.6,125.9
			C269.6,125.9,269.6,125.9,269.6,125.9z"/>
	</g>
</g>
</svg>
